<?xml version="1.0" encoding="utf-8"?>
<svg xmlns="http://www.w3.org/2000/svg" xmlns:xlink="http://www.w3.org/1999/xlink" width="600" height="400" viewBox="0 0 2400 1600">
<defs>
  <clipPath id="clip570">
    <rect x="0" y="0" width="2400" height="1600"/>
  </clipPath>
</defs>
<path clip-path="url(#clip570)" d="
M0 1600 L2400 1600 L2400 0 L0 0  Z
  " fill="#ffffff" fill-rule="evenodd" fill-opacity="1"/>
<defs>
  <clipPath id="clip571">
    <rect x="480" y="0" width="1681" height="1600"/>
  </clipPath>
</defs>
<defs>
  <clipPath id="clip572">
    <rect x="219" y="112" width="2135" height="1329"/>
  </clipPath>
</defs>
<path clip-path="url(#clip570)" d="
M219.054 1441.22 L2352.76 1441.22 L2352.76 112.815 L219.054 112.815  Z
  " fill="#ffffff" fill-rule="evenodd" fill-opacity="1"/>
<polyline clip-path="url(#clip572)" style="stroke:#000000; stroke-width:2; stroke-opacity:0.1; fill:none" points="
  276.922,1441.22 276.922,112.815 
  "/>
<polyline clip-path="url(#clip572)" style="stroke:#000000; stroke-width:2; stroke-opacity:0.1; fill:none" points="
  780.784,1441.22 780.784,112.815 
  "/>
<polyline clip-path="url(#clip572)" style="stroke:#000000; stroke-width:2; stroke-opacity:0.1; fill:none" points="
  1284.65,1441.22 1284.65,112.815 
  "/>
<polyline clip-path="url(#clip572)" style="stroke:#000000; stroke-width:2; stroke-opacity:0.1; fill:none" points="
  1788.51,1441.22 1788.51,112.815 
  "/>
<polyline clip-path="url(#clip572)" style="stroke:#000000; stroke-width:2; stroke-opacity:0.1; fill:none" points="
  2292.37,1441.22 2292.37,112.815 
  "/>
<polyline clip-path="url(#clip570)" style="stroke:#000000; stroke-width:4; stroke-opacity:1; fill:none" points="
  219.054,1441.22 2352.76,1441.22 
  "/>
<polyline clip-path="url(#clip570)" style="stroke:#000000; stroke-width:4; stroke-opacity:1; fill:none" points="
  276.922,1441.22 276.922,1425.28 
  "/>
<polyline clip-path="url(#clip570)" style="stroke:#000000; stroke-width:4; stroke-opacity:1; fill:none" points="
  780.784,1441.22 780.784,1425.28 
  "/>
<polyline clip-path="url(#clip570)" style="stroke:#000000; stroke-width:4; stroke-opacity:1; fill:none" points="
  1284.65,1441.22 1284.65,1425.28 
  "/>
<polyline clip-path="url(#clip570)" style="stroke:#000000; stroke-width:4; stroke-opacity:1; fill:none" points="
  1788.51,1441.22 1788.51,1425.28 
  "/>
<polyline clip-path="url(#clip570)" style="stroke:#000000; stroke-width:4; stroke-opacity:1; fill:none" points="
  2292.37,1441.22 2292.37,1425.28 
  "/>
<path clip-path="url(#clip570)" d="M 0 0 M276.922 1470.41 Q273.311 1470.41 271.482 1473.98 Q269.677 1477.52 269.677 1484.65 Q269.677 1491.75 271.482 1495.32 Q273.311 1498.86 276.922 1498.86 Q280.556 1498.86 282.362 1495.32 Q284.191 1491.75 284.191 1484.65 Q284.191 1477.52 282.362 1473.98 Q280.556 1470.41 276.922 1470.41 M276.922 1466.71 Q282.732 1466.71 285.788 1471.31 Q288.867 1475.9 288.867 1484.65 Q288.867 1493.37 285.788 1497.98 Q282.732 1502.56 276.922 1502.56 Q271.112 1502.56 268.033 1497.98 Q264.978 1493.37 264.978 1484.65 Q264.978 1475.9 268.033 1471.31 Q271.112 1466.71 276.922 1466.71 Z" fill="#000000" fill-rule="evenodd" fill-opacity="1" /><path clip-path="url(#clip570)" d="M 0 0 M775.437 1497.96 L791.756 1497.96 L791.756 1501.89 L769.812 1501.89 L769.812 1497.96 Q772.474 1495.2 777.057 1490.57 Q781.663 1485.92 782.844 1484.58 Q785.089 1482.05 785.969 1480.32 Q786.872 1478.56 786.872 1476.87 Q786.872 1474.12 784.927 1472.38 Q783.006 1470.64 779.904 1470.64 Q777.705 1470.64 775.251 1471.41 Q772.821 1472.17 770.043 1473.72 L770.043 1469 Q772.867 1467.87 775.321 1467.29 Q777.774 1466.71 779.812 1466.71 Q785.182 1466.71 788.376 1469.39 Q791.571 1472.08 791.571 1476.57 Q791.571 1478.7 790.761 1480.62 Q789.973 1482.52 787.867 1485.11 Q787.288 1485.78 784.186 1489 Q781.085 1492.19 775.437 1497.96 Z" fill="#000000" fill-rule="evenodd" fill-opacity="1" /><path clip-path="url(#clip570)" d="M 0 0 M1287.65 1471.41 L1275.85 1489.86 L1287.65 1489.86 L1287.65 1471.41 M1286.43 1467.33 L1292.31 1467.33 L1292.31 1489.86 L1297.24 1489.86 L1297.24 1493.74 L1292.31 1493.74 L1292.31 1501.89 L1287.65 1501.89 L1287.65 1493.74 L1272.05 1493.74 L1272.05 1489.23 L1286.43 1467.33 Z" fill="#000000" fill-rule="evenodd" fill-opacity="1" /><path clip-path="url(#clip570)" d="M 0 0 M1788.91 1482.75 Q1785.76 1482.75 1783.91 1484.9 Q1782.08 1487.05 1782.08 1490.8 Q1782.08 1494.53 1783.91 1496.71 Q1785.76 1498.86 1788.91 1498.86 Q1792.06 1498.86 1793.89 1496.71 Q1795.74 1494.53 1795.74 1490.8 Q1795.74 1487.05 1793.89 1484.9 Q1792.06 1482.75 1788.91 1482.75 M1798.19 1468.1 L1798.19 1472.36 Q1796.43 1471.52 1794.63 1471.08 Q1792.85 1470.64 1791.09 1470.64 Q1786.46 1470.64 1784 1473.77 Q1781.57 1476.89 1781.23 1483.21 Q1782.59 1481.2 1784.65 1480.13 Q1786.71 1479.05 1789.19 1479.05 Q1794.4 1479.05 1797.41 1482.22 Q1800.44 1485.36 1800.44 1490.8 Q1800.44 1496.13 1797.29 1499.35 Q1794.14 1502.56 1788.91 1502.56 Q1782.92 1502.56 1779.75 1497.98 Q1776.57 1493.37 1776.57 1484.65 Q1776.57 1476.45 1780.46 1471.59 Q1784.35 1466.71 1790.9 1466.71 Q1792.66 1466.71 1794.44 1467.05 Q1796.25 1467.4 1798.19 1468.1 Z" fill="#000000" fill-rule="evenodd" fill-opacity="1" /><path clip-path="url(#clip570)" d="M 0 0 M2292.37 1485.48 Q2289.03 1485.48 2287.11 1487.26 Q2285.22 1489.05 2285.22 1492.17 Q2285.22 1495.3 2287.11 1497.08 Q2289.03 1498.86 2292.37 1498.86 Q2295.7 1498.86 2297.62 1497.08 Q2299.54 1495.27 2299.54 1492.17 Q2299.54 1489.05 2297.62 1487.26 Q2295.72 1485.48 2292.37 1485.48 M2287.69 1483.49 Q2284.68 1482.75 2282.99 1480.69 Q2281.33 1478.63 2281.33 1475.67 Q2281.33 1471.52 2284.27 1469.12 Q2287.23 1466.71 2292.37 1466.71 Q2297.53 1466.71 2300.47 1469.12 Q2303.41 1471.52 2303.41 1475.67 Q2303.41 1478.63 2301.72 1480.69 Q2300.05 1482.75 2297.07 1483.49 Q2300.45 1484.28 2302.32 1486.57 Q2304.22 1488.86 2304.22 1492.17 Q2304.22 1497.19 2301.14 1499.88 Q2298.09 1502.56 2292.37 1502.56 Q2286.65 1502.56 2283.57 1499.88 Q2280.52 1497.19 2280.52 1492.17 Q2280.52 1488.86 2282.41 1486.57 Q2284.31 1484.28 2287.69 1483.49 M2285.98 1476.11 Q2285.98 1478.79 2287.65 1480.3 Q2289.34 1481.8 2292.37 1481.8 Q2295.38 1481.8 2297.07 1480.3 Q2298.78 1478.79 2298.78 1476.11 Q2298.78 1473.42 2297.07 1471.92 Q2295.38 1470.41 2292.37 1470.41 Q2289.34 1470.41 2287.65 1471.92 Q2285.98 1473.42 2285.98 1476.11 Z" fill="#000000" fill-rule="evenodd" fill-opacity="1" /><path clip-path="url(#clip570)" d="M 0 0 M1311.69 1524.93 Q1311.69 1525.54 1311.56 1526.06 L1309.76 1537.52 Q1309.66 1538.39 1309.47 1538.71 Q1309.31 1539.03 1308.79 1539.03 Q1307.99 1539.03 1307.99 1538.2 Q1307.99 1537.71 1308.18 1536.94 Q1308.73 1533.3 1308.73 1531.66 Q1308.73 1530.56 1308.5 1529.76 Q1308.31 1528.92 1307.99 1528.34 Q1307.7 1527.76 1307.02 1527.38 Q1306.35 1526.99 1305.7 1526.76 Q1305.06 1526.54 1303.9 1526.44 Q1302.74 1526.31 1301.74 1526.28 Q1300.74 1526.25 1299.1 1526.25 Q1295.52 1526.25 1294.95 1526.38 Q1294.33 1526.54 1294.01 1527.02 Q1293.72 1527.47 1293.4 1528.83 L1284.64 1563.83 L1284.38 1565.22 Q1284.38 1565.99 1284.86 1566.25 Q1285.35 1566.51 1286.83 1566.67 Q1288.95 1566.83 1291.05 1566.83 Q1291.11 1566.83 1291.24 1566.83 Q1291.95 1566.83 1292.24 1566.86 Q1292.53 1566.86 1292.82 1566.93 Q1293.11 1566.99 1293.17 1567.15 Q1293.27 1567.28 1293.27 1567.54 Q1293.27 1568.15 1293.01 1568.47 Q1292.76 1568.76 1292.5 1568.83 Q1292.27 1568.86 1291.82 1568.86 Q1290.92 1568.86 1288.99 1568.79 Q1287.05 1568.73 1286.09 1568.73 L1280.61 1568.66 L1275.01 1568.73 Q1274.14 1568.73 1272.3 1568.79 Q1270.47 1568.86 1269.6 1568.86 Q1268.47 1568.86 1268.47 1568.05 Q1268.47 1567.15 1268.89 1566.99 Q1269.34 1566.83 1271.24 1566.83 Q1273.91 1566.83 1275.36 1566.7 Q1276.81 1566.57 1277.59 1566.12 Q1278.39 1565.67 1278.62 1565.22 Q1278.84 1564.74 1279.1 1563.64 L1287.96 1528.44 Q1288.21 1527.67 1288.21 1527.05 Q1288.21 1526.73 1288.12 1526.6 Q1288.05 1526.47 1287.63 1526.38 Q1287.22 1526.25 1286.35 1526.25 L1283.77 1526.25 Q1281.13 1526.25 1279.49 1526.38 Q1277.88 1526.47 1276.33 1526.96 Q1274.82 1527.44 1273.91 1528.12 Q1273.05 1528.79 1272.08 1530.18 Q1271.11 1531.56 1270.4 1533.24 Q1269.73 1534.91 1268.76 1537.65 Q1268.44 1538.55 1268.25 1538.81 Q1268.09 1539.03 1267.63 1539.03 Q1267.31 1539.03 1267.05 1538.84 Q1266.83 1538.62 1266.83 1538.33 Q1267.15 1537.26 1267.22 1537.13 L1271.18 1525.51 Q1271.5 1524.57 1271.79 1524.41 Q1272.11 1524.22 1273.3 1524.22 L1309.89 1524.22 Q1310.47 1524.22 1310.66 1524.22 Q1310.85 1524.22 1311.18 1524.28 Q1311.5 1524.35 1311.6 1524.51 Q1311.69 1524.67 1311.69 1524.93 Z" fill="#000000" fill-rule="evenodd" fill-opacity="1" /><polyline clip-path="url(#clip572)" style="stroke:#000000; stroke-width:2; stroke-opacity:0.1; fill:none" points="
  219.054,1379.45 2352.76,1379.45 
  "/>
<polyline clip-path="url(#clip572)" style="stroke:#000000; stroke-width:2; stroke-opacity:0.1; fill:none" points="
  219.054,1069.69 2352.76,1069.69 
  "/>
<polyline clip-path="url(#clip572)" style="stroke:#000000; stroke-width:2; stroke-opacity:0.1; fill:none" points="
  219.054,759.935 2352.76,759.935 
  "/>
<polyline clip-path="url(#clip572)" style="stroke:#000000; stroke-width:2; stroke-opacity:0.1; fill:none" points="
  219.054,450.179 2352.76,450.179 
  "/>
<polyline clip-path="url(#clip572)" style="stroke:#000000; stroke-width:2; stroke-opacity:0.1; fill:none" points="
  219.054,140.424 2352.76,140.424 
  "/>
<polyline clip-path="url(#clip570)" style="stroke:#000000; stroke-width:4; stroke-opacity:1; fill:none" points="
  219.054,1441.22 219.054,112.815 
  "/>
<polyline clip-path="url(#clip570)" style="stroke:#000000; stroke-width:4; stroke-opacity:1; fill:none" points="
  219.054,1379.45 244.658,1379.45 
  "/>
<polyline clip-path="url(#clip570)" style="stroke:#000000; stroke-width:4; stroke-opacity:1; fill:none" points="
  219.054,1069.69 244.658,1069.69 
  "/>
<polyline clip-path="url(#clip570)" style="stroke:#000000; stroke-width:4; stroke-opacity:1; fill:none" points="
  219.054,759.935 244.658,759.935 
  "/>
<polyline clip-path="url(#clip570)" style="stroke:#000000; stroke-width:4; stroke-opacity:1; fill:none" points="
  219.054,450.179 244.658,450.179 
  "/>
<polyline clip-path="url(#clip570)" style="stroke:#000000; stroke-width:4; stroke-opacity:1; fill:none" points="
  219.054,140.424 244.658,140.424 
  "/>
<path clip-path="url(#clip570)" d="M 0 0 M125.878 1365.24 Q122.267 1365.24 120.438 1368.81 Q118.633 1372.35 118.633 1379.48 Q118.633 1386.59 120.438 1390.15 Q122.267 1393.69 125.878 1393.69 Q129.512 1393.69 131.318 1390.15 Q133.147 1386.59 133.147 1379.48 Q133.147 1372.35 131.318 1368.81 Q129.512 1365.24 125.878 1365.24 M125.878 1361.54 Q131.688 1361.54 134.744 1366.15 Q137.823 1370.73 137.823 1379.48 Q137.823 1388.21 134.744 1392.81 Q131.688 1397.4 125.878 1397.4 Q120.068 1397.4 116.989 1392.81 Q113.934 1388.21 113.934 1379.48 Q113.934 1370.73 116.989 1366.15 Q120.068 1361.54 125.878 1361.54 Z" fill="#000000" fill-rule="evenodd" fill-opacity="1" /><path clip-path="url(#clip570)" d="M 0 0 M146.04 1390.85 L150.924 1390.85 L150.924 1396.73 L146.04 1396.73 L146.04 1390.85 Z" fill="#000000" fill-rule="evenodd" fill-opacity="1" /><path clip-path="url(#clip570)" d="M 0 0 M171.109 1365.24 Q167.498 1365.24 165.67 1368.81 Q163.864 1372.35 163.864 1379.48 Q163.864 1386.59 165.67 1390.15 Q167.498 1393.69 171.109 1393.69 Q174.744 1393.69 176.549 1390.15 Q178.378 1386.59 178.378 1379.48 Q178.378 1372.35 176.549 1368.81 Q174.744 1365.24 171.109 1365.24 M171.109 1361.54 Q176.92 1361.54 179.975 1366.15 Q183.054 1370.73 183.054 1379.48 Q183.054 1388.21 179.975 1392.81 Q176.92 1397.4 171.109 1397.4 Q165.299 1397.4 162.221 1392.81 Q159.165 1388.21 159.165 1379.48 Q159.165 1370.73 162.221 1366.15 Q165.299 1361.54 171.109 1361.54 Z" fill="#000000" fill-rule="evenodd" fill-opacity="1" /><path clip-path="url(#clip570)" d="M 0 0 M127.475 1055.49 Q123.864 1055.49 122.036 1059.05 Q120.23 1062.6 120.23 1069.72 Q120.23 1076.83 122.036 1080.4 Q123.864 1083.94 127.475 1083.94 Q131.11 1083.94 132.915 1080.4 Q134.744 1076.83 134.744 1069.72 Q134.744 1062.6 132.915 1059.05 Q131.11 1055.49 127.475 1055.49 M127.475 1051.79 Q133.286 1051.79 136.341 1056.39 Q139.42 1060.97 139.42 1069.72 Q139.42 1078.45 136.341 1083.06 Q133.286 1087.64 127.475 1087.64 Q121.665 1087.64 118.587 1083.06 Q115.531 1078.45 115.531 1069.72 Q115.531 1060.97 118.587 1056.39 Q121.665 1051.79 127.475 1051.79 Z" fill="#000000" fill-rule="evenodd" fill-opacity="1" /><path clip-path="url(#clip570)" d="M 0 0 M147.637 1081.09 L152.522 1081.09 L152.522 1086.97 L147.637 1086.97 L147.637 1081.09 Z" fill="#000000" fill-rule="evenodd" fill-opacity="1" /><path clip-path="url(#clip570)" d="M 0 0 M166.734 1083.04 L183.054 1083.04 L183.054 1086.97 L161.109 1086.97 L161.109 1083.04 Q163.771 1080.28 168.355 1075.65 Q172.961 1071 174.142 1069.66 Q176.387 1067.13 177.267 1065.4 Q178.17 1063.64 178.17 1061.95 Q178.17 1059.19 176.225 1057.46 Q174.304 1055.72 171.202 1055.72 Q169.003 1055.72 166.549 1056.48 Q164.119 1057.25 161.341 1058.8 L161.341 1054.08 Q164.165 1052.94 166.619 1052.36 Q169.072 1051.79 171.109 1051.79 Q176.48 1051.79 179.674 1054.47 Q182.869 1057.16 182.869 1061.65 Q182.869 1063.78 182.058 1065.7 Q181.271 1067.6 179.165 1070.19 Q178.586 1070.86 175.484 1074.08 Q172.383 1077.27 166.734 1083.04 Z" fill="#000000" fill-rule="evenodd" fill-opacity="1" /><path clip-path="url(#clip570)" d="M 0 0 M125.392 745.733 Q121.781 745.733 119.952 749.298 Q118.147 752.84 118.147 759.969 Q118.147 767.076 119.952 770.641 Q121.781 774.182 125.392 774.182 Q129.026 774.182 130.832 770.641 Q132.661 767.076 132.661 759.969 Q132.661 752.84 130.832 749.298 Q129.026 745.733 125.392 745.733 M125.392 742.03 Q131.202 742.03 134.258 746.636 Q137.336 751.219 137.336 759.969 Q137.336 768.696 134.258 773.303 Q131.202 777.886 125.392 777.886 Q119.582 777.886 116.503 773.303 Q113.448 768.696 113.448 759.969 Q113.448 751.219 116.503 746.636 Q119.582 742.03 125.392 742.03 Z" fill="#000000" fill-rule="evenodd" fill-opacity="1" /><path clip-path="url(#clip570)" d="M 0 0 M145.554 771.335 L150.438 771.335 L150.438 777.215 L145.554 777.215 L145.554 771.335 Z" fill="#000000" fill-rule="evenodd" fill-opacity="1" /><path clip-path="url(#clip570)" d="M 0 0 M173.47 746.729 L161.665 765.178 L173.47 765.178 L173.47 746.729 M172.244 742.655 L178.123 742.655 L178.123 765.178 L183.054 765.178 L183.054 769.067 L178.123 769.067 L178.123 777.215 L173.47 777.215 L173.47 769.067 L157.869 769.067 L157.869 764.553 L172.244 742.655 Z" fill="#000000" fill-rule="evenodd" fill-opacity="1" /><path clip-path="url(#clip570)" d="M 0 0 M125.716 435.978 Q122.105 435.978 120.276 439.543 Q118.471 443.084 118.471 450.214 Q118.471 457.32 120.276 460.885 Q122.105 464.427 125.716 464.427 Q129.35 464.427 131.156 460.885 Q132.985 457.32 132.985 450.214 Q132.985 443.084 131.156 439.543 Q129.35 435.978 125.716 435.978 M125.716 432.274 Q131.526 432.274 134.582 436.881 Q137.66 441.464 137.66 450.214 Q137.66 458.941 134.582 463.547 Q131.526 468.13 125.716 468.13 Q119.906 468.13 116.827 463.547 Q113.772 458.941 113.772 450.214 Q113.772 441.464 116.827 436.881 Q119.906 432.274 125.716 432.274 Z" fill="#000000" fill-rule="evenodd" fill-opacity="1" /><path clip-path="url(#clip570)" d="M 0 0 M145.878 461.58 L150.762 461.58 L150.762 467.459 L145.878 467.459 L145.878 461.58 Z" fill="#000000" fill-rule="evenodd" fill-opacity="1" /><path clip-path="url(#clip570)" d="M 0 0 M171.526 448.316 Q168.378 448.316 166.526 450.468 Q164.697 452.621 164.697 456.371 Q164.697 460.098 166.526 462.274 Q168.378 464.427 171.526 464.427 Q174.674 464.427 176.503 462.274 Q178.355 460.098 178.355 456.371 Q178.355 452.621 176.503 450.468 Q174.674 448.316 171.526 448.316 M180.808 433.663 L180.808 437.922 Q179.049 437.089 177.244 436.649 Q175.461 436.209 173.702 436.209 Q169.072 436.209 166.619 439.334 Q164.188 442.459 163.841 448.779 Q165.207 446.765 167.267 445.7 Q169.327 444.612 171.804 444.612 Q177.012 444.612 180.021 447.783 Q183.054 450.931 183.054 456.371 Q183.054 461.695 179.906 464.913 Q176.758 468.13 171.526 468.13 Q165.531 468.13 162.359 463.547 Q159.188 458.941 159.188 450.214 Q159.188 442.019 163.077 437.158 Q166.966 432.274 173.517 432.274 Q175.276 432.274 177.058 432.621 Q178.864 432.969 180.808 433.663 Z" fill="#000000" fill-rule="evenodd" fill-opacity="1" /><path clip-path="url(#clip570)" d="M 0 0 M125.971 126.222 Q122.36 126.222 120.531 129.787 Q118.725 133.329 118.725 140.458 Q118.725 147.565 120.531 151.13 Q122.36 154.671 125.971 154.671 Q129.605 154.671 131.411 151.13 Q133.239 147.565 133.239 140.458 Q133.239 133.329 131.411 129.787 Q129.605 126.222 125.971 126.222 M125.971 122.519 Q131.781 122.519 134.836 127.125 Q137.915 131.708 137.915 140.458 Q137.915 149.185 134.836 153.792 Q131.781 158.375 125.971 158.375 Q120.161 158.375 117.082 153.792 Q114.026 149.185 114.026 140.458 Q114.026 131.708 117.082 127.125 Q120.161 122.519 125.971 122.519 Z" fill="#000000" fill-rule="evenodd" fill-opacity="1" /><path clip-path="url(#clip570)" d="M 0 0 M146.133 151.824 L151.017 151.824 L151.017 157.704 L146.133 157.704 L146.133 151.824 Z" fill="#000000" fill-rule="evenodd" fill-opacity="1" /><path clip-path="url(#clip570)" d="M 0 0 M171.202 141.292 Q167.869 141.292 165.947 143.074 Q164.049 144.856 164.049 147.981 Q164.049 151.106 165.947 152.889 Q167.869 154.671 171.202 154.671 Q174.535 154.671 176.457 152.889 Q178.378 151.083 178.378 147.981 Q178.378 144.856 176.457 143.074 Q174.558 141.292 171.202 141.292 M166.526 139.301 Q163.517 138.56 161.827 136.5 Q160.16 134.44 160.16 131.477 Q160.16 127.333 163.1 124.926 Q166.063 122.519 171.202 122.519 Q176.364 122.519 179.304 124.926 Q182.244 127.333 182.244 131.477 Q182.244 134.44 180.554 136.5 Q178.887 138.56 175.901 139.301 Q179.281 140.088 181.156 142.38 Q183.054 144.671 183.054 147.981 Q183.054 153.005 179.975 155.69 Q176.92 158.375 171.202 158.375 Q165.484 158.375 162.406 155.69 Q159.35 153.005 159.35 147.981 Q159.35 144.671 161.248 142.38 Q163.146 140.088 166.526 139.301 M164.813 131.917 Q164.813 134.602 166.48 136.106 Q168.17 137.611 171.202 137.611 Q174.211 137.611 175.901 136.106 Q177.614 134.602 177.614 131.917 Q177.614 129.232 175.901 127.727 Q174.211 126.222 171.202 126.222 Q168.17 126.222 166.48 127.727 Q164.813 129.232 164.813 131.917 Z" fill="#000000" fill-rule="evenodd" fill-opacity="1" /><path clip-path="url(#clip570)" d="M 0 0 M17.4386 816.29 L34.2501 820.444 Q35.3128 820.734 35.4417 820.927 Q35.5705 821.089 35.5705 821.604 Q35.5705 822.602 34.8942 822.602 Q34.8298 822.602 33.9924 822.506 Q33.1228 822.409 31.5448 822.409 Q25.7155 822.409 22.2695 825.243 Q18.8234 828.045 18.8234 833.037 Q18.8234 837.352 21.0134 841.7 Q23.2034 846.016 26.7783 849.108 Q29.4836 851.426 32.8974 853.133 Q36.3112 854.808 39.4352 855.613 Q42.5592 856.386 44.9102 856.74 Q47.2612 857.095 48.9681 857.095 Q51.448 857.095 53.5414 856.579 Q55.6347 856.032 57.1162 855.066 Q58.5655 854.1 59.6927 852.876 Q60.7877 851.62 61.4318 850.17 Q62.0759 848.689 62.398 847.207 Q62.6878 845.726 62.6878 844.18 Q62.6878 837.964 57.8569 832.039 Q53.8956 827.336 47.4222 825.372 Q46.7781 825.211 46.7781 824.535 Q46.7781 823.729 47.4222 823.729 Q47.5511 823.729 48.1952 823.89 Q48.8071 824.051 50.0631 824.535 Q51.287 825.018 52.6718 825.758 Q54.0567 826.499 55.7958 827.884 Q57.5349 829.269 59.0486 830.976 Q61.5606 833.874 63.1387 837.546 Q64.7168 841.217 64.7168 845.243 Q64.7168 850.267 62.4946 854.325 Q60.2724 858.383 56.1178 860.766 Q51.9633 863.117 46.6493 863.117 Q41.0455 863.117 35.5383 860.541 Q30.0311 857.964 25.9409 853.874 Q21.8508 849.784 19.3065 844.373 Q16.7623 838.963 16.7623 833.552 Q16.7623 831.491 17.3098 829.655 Q17.8573 827.82 18.5336 826.725 Q19.2099 825.597 20.2083 824.599 Q21.1745 823.601 21.6254 823.279 Q22.0762 822.924 22.6237 822.602 L17.5674 817.997 Q16.7623 817.192 16.7623 816.998 Q16.7623 816.612 16.9877 816.451 Q17.2132 816.29 17.4386 816.29 Z" fill="#000000" fill-rule="evenodd" fill-opacity="1" /><path clip-path="url(#clip570)" d="M 0 0 M52.4719 776.788 Q53.3061 776.833 53.3512 777.396 Q53.3962 778.253 53.509 778.772 Q53.5991 779.29 53.9373 780.102 Q54.2755 780.913 55.0871 781.702 Q55.8986 782.491 57.1837 783.303 L83.6279 799.918 Q84.1239 800.211 84.2817 800.459 Q84.462 800.685 84.462 801.203 Q84.462 801.676 84.2591 801.857 Q84.0788 802.037 83.4024 802.127 L54.9067 805.779 Q54.3882 805.847 54.1627 805.915 Q53.9373 805.982 53.7119 806.253 Q53.4864 806.501 53.4188 807.042 Q53.3512 807.583 53.3512 808.552 Q53.3512 809.003 53.3286 809.206 Q53.3061 809.387 53.1933 809.544 Q53.0581 809.702 52.7876 809.702 Q52.3818 809.702 52.1789 809.544 Q51.9534 809.364 51.9309 809.229 Q51.9083 809.071 51.9083 808.823 Q51.9083 808.44 51.9534 807.606 Q51.9985 806.771 51.9985 806.343 Q51.9985 805.937 52.0211 805.081 Q52.0436 804.224 52.0436 803.796 Q52.0436 802.849 51.976 800.933 Q51.9083 798.994 51.9083 798.069 Q51.9083 797.438 52.4268 797.438 Q53.0581 797.438 53.2159 797.709 Q53.3512 797.979 53.3512 798.588 Q53.3512 800.121 53.7344 800.955 Q54.1177 801.767 54.7263 801.767 L79.1642 798.633 L56.62 784.453 Q55.5605 783.754 54.8616 783.754 Q53.509 783.754 53.3512 785.896 Q53.3512 786.617 52.7876 786.617 Q52.3818 786.617 52.1789 786.437 Q51.9534 786.256 51.9309 786.121 Q51.9083 785.963 51.9083 785.738 Q51.9083 784.994 51.976 783.483 Q52.0436 781.95 52.0436 781.184 Q52.0436 780.553 51.976 779.268 Q51.9083 777.983 51.9083 777.396 Q51.9083 776.788 52.4719 776.788 Z" fill="#000000" fill-rule="evenodd" fill-opacity="1" /><path clip-path="url(#clip570)" d="M 0 0 M78.823 776.024 Q78.5009 776.024 77.7924 775.766 L15.5707 752.481 Q15.5062 752.481 15.152 752.32 Q14.7977 752.159 14.5723 752.063 Q14.3146 751.966 14.1214 751.773 Q13.9282 751.547 13.9282 751.29 Q13.9282 750.646 14.7333 750.646 Q14.7977 750.646 15.5707 750.839 L77.8568 774.188 Q78.984 774.574 79.3061 774.832 Q79.6281 775.058 79.6281 775.444 Q79.6281 776.024 78.823 776.024 Z" fill="#000000" fill-rule="evenodd" fill-opacity="1" /><path clip-path="url(#clip570)" d="M 0 0 M18.9523 687.837 Q20.2727 687.837 20.2727 688.964 Q20.4015 692.603 21.6254 694.085 Q22.817 695.534 25.1358 696.081 L61.8827 705.292 Q63.0421 705.614 63.1709 705.808 Q63.2675 706.001 63.2675 706.355 Q63.2675 706.806 63.0421 707.064 Q62.8167 707.289 62.0115 707.611 L23.1712 724.036 Q22.9136 724.165 22.5593 724.326 Q22.2051 724.487 21.9796 724.616 L56.7942 733.344 Q57.7925 733.601 58.3078 733.601 Q59.5639 733.601 60.369 732.732 Q61.1419 731.83 61.2386 729.254 Q61.2386 727.933 61.9471 727.933 Q63.2675 727.933 63.2675 729.125 Q63.2675 730.22 63.1709 732.506 Q63.0743 734.793 63.0743 735.92 Q63.0743 737.015 63.1709 739.237 Q63.2675 741.46 63.2675 742.522 Q63.2675 743.36 62.5268 743.36 Q61.9471 743.36 61.6572 743.134 Q61.3352 742.909 61.303 742.716 Q61.2386 742.522 61.2386 742.232 Q61.1742 740.3 60.7877 738.98 Q60.4012 737.659 59.6605 736.919 Q58.9197 736.146 58.179 735.791 Q57.4061 735.405 56.2789 735.115 L20.8524 726.291 Q20.2727 726.291 20.2727 730.767 Q20.2727 731.54 20.2405 731.862 Q20.2083 732.152 20.0473 732.377 Q19.8862 732.603 19.532 732.603 Q18.6302 732.603 18.437 732.216 Q18.2115 731.83 18.2115 730.703 L18.2115 721.846 Q18.2115 720.719 18.4048 720.429 Q18.5658 720.139 19.4676 719.753 L53.8956 705.164 L24.5561 697.788 Q23.9764 697.595 23.1712 697.595 Q21.883 697.595 21.1101 698.561 Q20.3049 699.495 20.2727 702.072 Q20.2727 703.263 19.532 703.263 Q18.9201 703.263 18.6302 703.038 Q18.3082 702.78 18.2759 702.587 Q18.2115 702.362 18.2115 702.072 Q18.2115 700.977 18.3082 698.722 Q18.4048 696.468 18.4048 695.341 Q18.4048 694.246 18.3082 692.024 Q18.2115 689.769 18.2115 688.674 Q18.2115 688.288 18.4048 688.094 Q18.5658 687.869 18.759 687.837 L18.9523 687.837 Z" fill="#000000" fill-rule="evenodd" fill-opacity="1" /><path clip-path="url(#clip570)" d="M 0 0 M581.795 65.9345 L581.795 49.1289 Q581.795 48.1861 581.836 47.8582 Q581.877 47.5303 582.123 47.2844 Q582.369 47.0384 582.861 47.0384 Q583.804 47.0384 583.886 47.8992 Q584.132 56.22 589.091 60.8108 Q593.969 65.3606 602.331 65.3606 Q607.372 65.3606 610.488 61.7536 Q613.603 58.1055 613.603 53.3508 Q613.603 48.801 610.98 45.6038 Q609.873 44.1692 608.479 43.2674 Q607.127 42.3247 606.266 42.0377 Q605.446 41.7508 603.847 41.3409 Q593.436 38.8406 592.78 38.5536 Q587.821 36.8731 584.787 32.6512 Q581.795 28.3883 581.795 23.1827 Q581.795 16.4604 586.509 11.7057 Q591.264 6.90992 598.15 6.90992 Q601.593 6.90992 604.462 8.01663 Q607.372 9.08235 608.561 10.0661 Q609.75 11.0498 611.594 12.8124 L614.505 8.01663 Q615.16 6.90992 615.775 6.90992 Q616.431 6.90992 616.554 7.31981 Q616.718 7.68872 616.718 8.91839 L616.718 25.806 Q616.718 26.7487 616.677 27.0766 Q616.636 27.4046 616.349 27.6095 Q616.103 27.8145 615.611 27.8145 Q614.792 27.8145 614.587 26.8307 Q612.25 9.2873 598.232 9.2873 Q593.436 9.2873 590.28 12.5255 Q587.165 15.7226 587.165 20.2724 Q587.165 23.9615 589.46 26.9947 Q591.756 29.9869 595.65 30.9296 L606.389 33.512 Q611.758 34.7826 615.365 39.5374 Q618.972 44.2921 618.972 50.4815 Q618.972 57.6137 614.3 62.7783 Q609.668 67.943 602.413 67.943 Q597.207 67.943 593.19 66.2214 Q589.173 64.4999 587.001 62.0815 Q585.32 64.8688 584.214 66.4264 L583.968 66.8362 Q583.312 67.943 582.697 67.943 Q582.041 67.943 581.918 67.5331 Q581.795 67.1232 581.795 65.9345 Z" fill="#000000" fill-rule="evenodd" fill-opacity="1" /><path clip-path="url(#clip570)" d="M 0 0 M627.912 79.7889 Q632.38 79.7889 633.405 79.215 Q634.471 78.6821 634.471 76.0178 L634.471 36.7091 Q634.471 33.9219 633.405 33.225 Q632.38 32.5282 627.912 32.5282 L627.912 29.9049 L640.004 29.0031 L640.004 34.5367 Q645.046 29.0031 651.768 29.0031 Q658.9 29.0031 664.106 34.5367 Q669.311 40.0702 669.311 47.9812 Q669.311 55.9741 663.778 61.5076 Q658.244 67.0412 650.579 67.0412 Q646.398 67.0412 643.57 64.9097 Q640.783 62.7373 640.25 61.1387 L640.25 61.9175 L640.25 76.0178 Q640.25 78.7231 641.316 79.256 Q642.381 79.7889 646.808 79.7889 L646.808 82.3712 Q637.996 82.1252 637.34 82.1252 Q636.52 82.1252 627.912 82.3712 L627.912 79.7889 M640.25 56.5479 Q640.25 57.8186 640.414 58.2695 Q640.619 58.7204 641.439 60.073 Q644.759 65.1557 650.169 65.1557 Q650.21 65.1557 650.251 65.1557 Q655.047 65.1557 658.695 60.278 Q662.343 55.3592 662.343 47.9812 Q662.343 40.931 659.023 36.0123 Q655.703 31.0936 651.112 31.0936 Q647.833 31.0936 644.964 32.8561 Q642.095 34.6187 640.25 37.8158 L640.25 56.5479 Z" fill="#000000" fill-rule="evenodd" fill-opacity="1" /><path clip-path="url(#clip570)" d="M 0 0 M674.029 47.6123 Q674.029 39.7013 679.112 34.0858 Q684.195 28.4703 691.491 28.4703 Q698.869 28.4703 702.681 33.266 Q706.534 38.0618 706.534 44.948 Q706.534 46.2186 706.206 46.4646 Q705.878 46.7105 704.443 46.7105 L680.997 46.7105 Q680.997 55.2773 683.539 59.2942 Q687.064 64.9097 693.007 64.9097 Q693.827 64.9097 694.811 64.7458 Q695.795 64.5818 697.803 63.885 Q699.812 63.1472 701.574 61.2207 Q703.337 59.2942 704.361 56.261 Q704.607 55.0723 705.427 55.1133 Q706.534 55.1133 706.534 56.0971 Q706.534 56.8349 705.714 58.5154 Q704.935 60.155 703.419 62.1225 Q701.902 64.09 698.951 65.5656 Q696.041 67.0412 692.515 67.0412 Q685.137 67.0412 679.563 61.4666 Q674.029 55.8511 674.029 47.6123 M681.079 44.948 L701 44.948 Q701 43.1854 700.672 41.2179 Q700.385 39.2505 699.484 36.5452 Q698.623 33.7989 696.573 32.0773 Q694.524 30.3558 691.491 30.3558 Q690.138 30.3558 688.662 30.9296 Q687.228 31.5035 685.465 32.8971 Q683.703 34.2908 682.473 37.4469 Q681.243 40.6031 681.079 44.948 Z" fill="#000000" fill-rule="evenodd" fill-opacity="1" /><path clip-path="url(#clip570)" d="M 0 0 M716.26 61.5076 Q710.931 55.9331 710.931 47.9812 Q710.931 39.9883 716.178 34.2498 Q721.424 28.4703 729.13 28.4703 Q734.254 28.4703 738.107 30.9296 Q741.96 33.348 741.96 37.4879 Q741.96 39.3324 740.853 40.3982 Q739.788 41.4229 738.107 41.4229 Q736.344 41.4229 735.279 40.3572 Q734.254 39.2505 734.254 37.5699 Q734.254 36.8321 734.5 36.0943 Q734.746 35.3565 735.648 34.5777 Q736.59 33.7989 738.189 33.6759 Q735.197 30.6017 729.376 30.6017 Q729.294 30.6017 729.212 30.6017 Q724.949 30.6017 721.424 34.6187 Q717.899 38.6356 717.899 47.8172 Q717.899 52.613 719.047 56.138 Q720.236 59.6221 722.162 61.4257 Q724.089 63.2292 725.974 64.09 Q727.86 64.9097 729.704 64.9097 Q737.943 64.9097 740.73 56.0971 Q740.976 55.2773 741.796 55.2773 Q742.903 55.2773 742.903 56.0971 Q742.903 56.5069 742.575 57.5727 Q742.247 58.6384 741.222 60.3189 Q740.197 61.9995 738.722 63.4751 Q737.287 64.9097 734.705 65.9755 Q732.163 67.0412 728.966 67.0412 Q721.588 67.0412 716.26 61.5076 Z" fill="#000000" fill-rule="evenodd" fill-opacity="1" /><path clip-path="url(#clip570)" d="M 0 0 M747.833 66.0984 L747.833 63.5161 Q752.301 63.5161 753.325 62.9833 Q754.35 62.4094 754.35 59.7041 L754.35 37.119 Q754.35 34.0038 753.284 33.266 Q752.26 32.5282 748.161 32.5282 L748.161 29.9049 L759.884 29.0031 L759.884 59.7861 Q759.884 62.2864 760.785 62.9013 Q761.687 63.5161 765.786 63.5161 L765.786 66.0984 Q757.219 65.8525 757.055 65.8525 Q755.908 65.8525 747.833 66.0984 M751.358 14.37 Q751.358 12.6894 752.629 11.3368 Q753.94 9.94313 755.785 9.94313 Q757.629 9.94313 758.941 11.2138 Q760.253 12.4435 760.253 14.411 Q760.253 16.3375 758.941 17.6081 Q757.629 18.8378 755.785 18.8378 Q753.858 18.8378 752.588 17.4852 Q751.358 16.1325 751.358 14.37 Z" fill="#000000" fill-rule="evenodd" fill-opacity="1" /><path clip-path="url(#clip570)" d="M 0 0 M770.851 32.5282 L770.851 29.9049 L777.45 29.9049 L777.45 20.2724 Q777.45 14.0421 781.467 10.476 Q785.525 6.90992 790.485 6.90992 Q793.764 6.90992 795.895 8.67246 Q798.027 10.435 798.027 12.8124 Q798.027 14.411 797.043 15.4767 Q796.1 16.5014 794.338 16.5014 Q792.657 16.5014 791.673 15.4357 Q790.731 14.37 790.731 12.8944 Q790.731 10.1891 793.231 9.36928 Q791.96 8.79543 790.485 8.75444 Q787.451 8.75444 785.074 11.8696 Q782.738 14.9848 782.738 20.1904 L782.738 29.9049 L792.575 29.9049 L792.575 32.5282 L783.025 32.5282 L783.025 59.5402 Q783.025 61.9585 784.008 62.7373 Q785.033 63.5161 789.378 63.5161 L791.14 63.5161 L791.14 66.0984 Q787.779 65.8525 780.483 65.8525 Q779.458 65.8525 777.86 65.8935 Q776.302 65.9345 774.171 66.0165 Q772.08 66.0984 770.933 66.0984 L770.933 63.5161 Q775.401 63.5161 776.425 62.9833 Q777.45 62.4094 777.45 59.7041 L777.45 32.5282 L770.851 32.5282 Z" fill="#000000" fill-rule="evenodd" fill-opacity="1" /><path clip-path="url(#clip570)" d="M 0 0 M793.558 66.0984 L793.558 63.5161 Q798.025 63.5161 799.05 62.9833 Q800.075 62.4094 800.075 59.7041 L800.075 37.119 Q800.075 34.0038 799.009 33.266 Q797.984 32.5282 793.886 32.5282 L793.886 29.9049 L805.609 29.0031 L805.609 59.7861 Q805.609 62.2864 806.51 62.9013 Q807.412 63.5161 811.511 63.5161 L811.511 66.0984 Q802.944 65.8525 802.78 65.8525 Q801.633 65.8525 793.558 66.0984 M797.083 14.37 Q797.083 12.6894 798.353 11.3368 Q799.665 9.94313 801.51 9.94313 Q803.354 9.94313 804.666 11.2138 Q805.977 12.4435 805.977 14.411 Q805.977 16.3375 804.666 17.6081 Q803.354 18.8378 801.51 18.8378 Q799.583 18.8378 798.312 17.4852 Q797.083 16.1325 797.083 14.37 Z" fill="#000000" fill-rule="evenodd" fill-opacity="1" /><path clip-path="url(#clip570)" d="M 0 0 M821.904 61.5076 Q816.576 55.9331 816.576 47.9812 Q816.576 39.9883 821.822 34.2498 Q827.069 28.4703 834.775 28.4703 Q839.898 28.4703 843.751 30.9296 Q847.604 33.348 847.604 37.4879 Q847.604 39.3324 846.498 40.3982 Q845.432 41.4229 843.751 41.4229 Q841.989 41.4229 840.923 40.3572 Q839.898 39.2505 839.898 37.5699 Q839.898 36.8321 840.144 36.0943 Q840.39 35.3565 841.292 34.5777 Q842.235 33.7989 843.833 33.6759 Q840.841 30.6017 835.021 30.6017 Q834.939 30.6017 834.857 30.6017 Q830.594 30.6017 827.069 34.6187 Q823.544 38.6356 823.544 47.8172 Q823.544 52.613 824.691 56.138 Q825.88 59.6221 827.807 61.4257 Q829.733 63.2292 831.619 64.09 Q833.504 64.9097 835.349 64.9097 Q843.588 64.9097 846.375 56.0971 Q846.621 55.2773 847.441 55.2773 Q848.547 55.2773 848.547 56.0971 Q848.547 56.5069 848.219 57.5727 Q847.891 58.6384 846.867 60.3189 Q845.842 61.9995 844.366 63.4751 Q842.932 64.9097 840.349 65.9755 Q837.808 67.0412 834.611 67.0412 Q827.233 67.0412 821.904 61.5076 Z" fill="#000000" fill-rule="evenodd" fill-opacity="1" /><path clip-path="url(#clip570)" d="M 0 0 M881.123 66.0984 L881.123 63.5161 Q885.591 63.5161 886.616 62.9833 Q887.641 62.4094 887.641 59.7041 L887.641 16.0505 Q887.641 12.9353 886.534 12.1565 Q885.468 11.3778 881.123 11.3778 L881.123 8.75444 L893.174 7.85267 L893.174 37.037 L893.256 37.037 Q894.609 34.0038 897.642 31.5035 Q900.675 29.0031 905.348 29.0031 Q911.66 29.0031 914.161 32.1183 Q916.005 34.2088 916.374 36.5452 Q916.784 38.8816 916.784 44.948 L916.784 60.9748 Q916.866 62.7373 918.219 63.1472 Q919.571 63.5161 923.342 63.5161 L923.342 66.0984 Q914.775 65.8525 913.915 65.8525 Q913.259 65.8525 904.446 66.0984 L904.446 63.5161 Q908.914 63.5161 909.939 62.9833 Q911.004 62.4094 911.004 59.7041 L911.004 40.1522 Q911.004 35.8893 909.693 33.389 Q908.381 30.8477 904.774 30.8477 Q900.429 30.8477 896.945 34.4957 Q893.461 38.1437 893.461 44.2921 L893.461 59.7041 Q893.461 62.4094 894.486 62.9833 Q895.551 63.5161 899.978 63.5161 L899.978 66.0984 Q891.412 65.8525 890.592 65.8525 Q889.936 65.8525 881.123 66.0984 Z" fill="#000000" fill-rule="evenodd" fill-opacity="1" /><path clip-path="url(#clip570)" d="M 0 0 M927.24 47.6123 Q927.24 39.7013 932.323 34.0858 Q937.406 28.4703 944.702 28.4703 Q952.08 28.4703 955.892 33.266 Q959.745 38.0618 959.745 44.948 Q959.745 46.2186 959.417 46.4646 Q959.089 46.7105 957.654 46.7105 L934.208 46.7105 Q934.208 55.2773 936.75 59.2942 Q940.275 64.9097 946.218 64.9097 Q947.038 64.9097 948.022 64.7458 Q949.006 64.5818 951.014 63.885 Q953.023 63.1472 954.785 61.2207 Q956.548 59.2942 957.572 56.261 Q957.818 55.0723 958.638 55.1133 Q959.745 55.1133 959.745 56.0971 Q959.745 56.8349 958.925 58.5154 Q958.146 60.155 956.63 62.1225 Q955.113 64.09 952.162 65.5656 Q949.252 67.0412 945.726 67.0412 Q938.348 67.0412 932.774 61.4666 Q927.24 55.8511 927.24 47.6123 M934.29 44.948 L954.211 44.948 Q954.211 43.1854 953.883 41.2179 Q953.596 39.2505 952.695 36.5452 Q951.834 33.7989 949.784 32.0773 Q947.735 30.3558 944.702 30.3558 Q943.349 30.3558 941.873 30.9296 Q940.439 31.5035 938.676 32.8971 Q936.914 34.2908 935.684 37.4469 Q934.454 40.6031 934.29 44.948 Z" fill="#000000" fill-rule="evenodd" fill-opacity="1" /><path clip-path="url(#clip570)" d="M 0 0 M964.142 58.1055 Q964.142 50.9734 972.545 47.2024 Q977.587 44.784 987.998 44.1692 L987.998 41.095 Q987.998 35.8893 985.252 33.1431 Q982.546 30.3558 979.103 30.3558 Q972.955 30.3558 970.004 34.2088 Q972.504 34.2908 973.406 35.5614 Q974.307 36.7911 974.307 38.0618 Q974.307 39.7423 973.242 40.849 Q972.217 41.9148 970.454 41.9148 Q968.774 41.9148 967.667 40.89 Q966.56 39.8243 966.56 37.9798 Q966.56 33.8809 970.249 31.1756 Q973.979 28.4703 979.267 28.4703 Q986.153 28.4703 990.744 33.1021 Q992.179 34.5367 992.876 36.3812 Q993.613 38.2257 993.695 39.4554 Q993.777 40.6441 993.777 43.0215 L993.777 59.7861 Q993.777 60.278 993.941 61.0977 Q994.105 61.9175 994.843 62.9833 Q995.622 64.008 996.892 64.008 Q999.926 64.008 999.885 58.6384 L999.885 53.9246 L1002.02 53.9246 L1002.02 58.6384 Q1002.02 63.1062 999.639 64.8688 Q997.302 66.5903 995.13 66.5903 Q992.343 66.5903 990.58 64.5408 Q988.818 62.4914 988.572 59.7041 Q987.301 62.9013 984.391 64.9917 Q981.522 67.0412 977.587 67.0412 Q974.553 67.0412 971.684 66.2624 Q968.856 65.5246 966.478 63.4341 Q964.142 61.3027 964.142 58.1055 M970.618 58.0235 Q970.618 61.1387 972.832 63.1472 Q975.045 65.1557 978.16 65.1557 Q981.685 65.1557 984.842 62.4504 Q987.998 59.7041 987.998 54.3345 L987.998 45.9317 Q978.693 46.2596 974.635 49.9897 Q970.618 53.6787 970.618 58.0235 Z" fill="#000000" fill-rule="evenodd" fill-opacity="1" /><path clip-path="url(#clip570)" d="M 0 0 M1005.71 32.5282 L1005.71 30.6837 Q1009.57 30.5197 1012.11 27.8145 Q1014.69 25.0682 1015.55 21.707 Q1016.45 18.3459 1016.53 14.4519 L1018.62 14.4519 L1018.62 29.9049 L1030.63 29.9049 L1030.63 32.5282 L1018.62 32.5282 L1018.62 55.8511 Q1018.62 64.9097 1024.28 64.9097 Q1026.7 64.9097 1028.3 62.4504 Q1029.9 59.95 1029.9 55.5232 L1029.9 50.8914 L1031.99 50.8914 L1031.99 55.6872 Q1031.99 60.237 1029.9 63.6391 Q1027.81 67.0412 1023.67 67.0412 Q1022.15 67.0412 1020.63 66.6313 Q1019.16 66.2624 1017.19 65.2787 Q1015.26 64.2539 1014.03 61.7946 Q1012.84 59.2942 1012.84 55.6872 L1012.84 32.5282 L1005.71 32.5282 Z" fill="#000000" fill-rule="evenodd" fill-opacity="1" /><path clip-path="url(#clip570)" d="M 0 0 M1065.59 79.7889 Q1070.06 79.7889 1071.08 79.215 Q1072.15 78.6821 1072.15 76.0178 L1072.15 36.7091 Q1072.15 33.9219 1071.08 33.225 Q1070.06 32.5282 1065.59 32.5282 L1065.59 29.9049 L1077.68 29.0031 L1077.68 34.5367 Q1082.72 29.0031 1089.45 29.0031 Q1096.58 29.0031 1101.78 34.5367 Q1106.99 40.0702 1106.99 47.9812 Q1106.99 55.9741 1101.46 61.5076 Q1095.92 67.0412 1088.26 67.0412 Q1084.08 67.0412 1081.25 64.9097 Q1078.46 62.7373 1077.93 61.1387 L1077.93 61.9175 L1077.93 76.0178 Q1077.93 78.7231 1078.99 79.256 Q1080.06 79.7889 1084.49 79.7889 L1084.49 82.3712 Q1075.67 82.1252 1075.02 82.1252 Q1074.2 82.1252 1065.59 82.3712 L1065.59 79.7889 M1077.93 56.5479 Q1077.93 57.8186 1078.09 58.2695 Q1078.3 58.7204 1079.12 60.073 Q1082.44 65.1557 1087.85 65.1557 Q1087.89 65.1557 1087.93 65.1557 Q1092.73 65.1557 1096.37 60.278 Q1100.02 55.3592 1100.02 47.9812 Q1100.02 40.931 1096.7 36.0123 Q1093.38 31.0936 1088.79 31.0936 Q1085.51 31.0936 1082.64 32.8561 Q1079.77 34.6187 1077.93 37.8158 L1077.93 56.5479 Z" fill="#000000" fill-rule="evenodd" fill-opacity="1" /><path clip-path="url(#clip570)" d="M 0 0 M1111.71 47.6123 Q1111.71 39.7013 1116.79 34.0858 Q1121.87 28.4703 1129.17 28.4703 Q1136.55 28.4703 1140.36 33.266 Q1144.21 38.0618 1144.21 44.948 Q1144.21 46.2186 1143.89 46.4646 Q1143.56 46.7105 1142.12 46.7105 L1118.68 46.7105 Q1118.68 55.2773 1121.22 59.2942 Q1124.74 64.9097 1130.69 64.9097 Q1131.51 64.9097 1132.49 64.7458 Q1133.47 64.5818 1135.48 63.885 Q1137.49 63.1472 1139.25 61.2207 Q1141.02 59.2942 1142.04 56.261 Q1142.29 55.0723 1143.11 55.1133 Q1144.21 55.1133 1144.21 56.0971 Q1144.21 56.8349 1143.39 58.5154 Q1142.61 60.155 1141.1 62.1225 Q1139.58 64.09 1136.63 65.5656 Q1133.72 67.0412 1130.19 67.0412 Q1122.82 67.0412 1117.24 61.4666 Q1111.71 55.8511 1111.71 47.6123 M1118.76 44.948 L1138.68 44.948 Q1138.68 43.1854 1138.35 41.2179 Q1138.06 39.2505 1137.16 36.5452 Q1136.3 33.7989 1134.25 32.0773 Q1132.2 30.3558 1129.17 30.3558 Q1127.82 30.3558 1126.34 30.9296 Q1124.91 31.5035 1123.14 32.8971 Q1121.38 34.2908 1120.15 37.4469 Q1118.92 40.6031 1118.76 44.948 Z" fill="#000000" fill-rule="evenodd" fill-opacity="1" /><path clip-path="url(#clip570)" d="M 0 0 M1148.61 66.0984 L1148.61 63.5161 Q1153.08 63.5161 1154.1 62.9833 Q1155.17 62.4094 1155.17 59.7041 L1155.17 37.201 Q1155.17 34.0858 1154.06 33.307 Q1153 32.5282 1148.61 32.5282 L1148.61 29.9049 L1160.29 29.0031 L1160.29 38.2257 Q1161.48 34.6187 1163.98 31.8314 Q1166.52 29.0031 1170.62 29.0031 Q1173.33 29.0031 1175.05 30.5197 Q1176.81 32.0363 1176.81 34.1268 Q1176.81 35.9713 1175.66 36.9141 Q1174.56 37.8158 1173.2 37.8158 Q1171.69 37.8158 1170.62 36.8731 Q1169.6 35.8893 1169.6 34.2088 Q1169.6 33.184 1170.05 32.4053 Q1170.54 31.5855 1170.91 31.2985 Q1171.28 31.0116 1171.52 30.9296 Q1171.36 30.8477 1170.62 30.8477 Q1165.99 30.8477 1163.33 35.4794 Q1160.7 40.0702 1160.7 46.6285 L1160.7 59.5402 Q1160.7 61.9585 1161.69 62.7373 Q1162.71 63.5161 1167.1 63.5161 L1168.86 63.5161 L1168.86 66.0984 Q1165.5 65.8525 1158.2 65.8525 Q1157.18 65.8525 1155.58 65.8935 Q1153.98 65.9345 1151.89 66.0165 Q1149.8 66.0984 1148.61 66.0984 Z" fill="#000000" fill-rule="evenodd" fill-opacity="1" /><path clip-path="url(#clip570)" d="M 0 0 M1208.73 66.0984 L1208.73 63.5161 Q1213.2 63.5161 1214.23 62.9833 Q1215.25 62.4094 1215.25 59.7041 L1215.25 37.201 Q1215.25 34.0858 1214.14 33.307 Q1213.08 32.5282 1208.73 32.5282 L1208.73 29.9049 L1220.54 29.0031 L1220.54 37.8158 Q1224.47 29.0031 1232.96 29.0031 Q1242.8 29.0031 1244.15 37.201 Q1245.58 34.0038 1248.57 31.5035 Q1251.61 29.0031 1256.32 29.0031 Q1262.63 29.0031 1265.13 32.1183 Q1266.98 34.2088 1267.35 36.5452 Q1267.72 38.8816 1267.72 44.948 L1267.72 60.9748 Q1267.8 62.7373 1269.15 63.1472 Q1270.5 63.5161 1274.27 63.5161 L1274.27 66.0984 Q1265.71 65.8525 1264.89 65.8525 Q1264.23 65.8525 1255.38 66.0984 L1255.38 63.5161 Q1259.85 63.5161 1260.87 62.9833 Q1261.94 62.4094 1261.94 59.7041 L1261.94 40.1522 Q1261.94 35.8893 1260.63 33.389 Q1259.31 30.8477 1255.71 30.8477 Q1251.36 30.8477 1247.88 34.4957 Q1244.39 38.1437 1244.39 44.2921 L1244.39 59.7041 Q1244.39 62.4094 1245.42 62.9833 Q1246.48 63.5161 1250.95 63.5161 L1250.95 66.0984 Q1242.39 65.8525 1241.52 65.8525 Q1240.87 65.8525 1232.06 66.0984 L1232.06 63.5161 Q1236.52 63.5161 1237.55 62.9833 Q1238.61 62.4094 1238.61 59.7041 L1238.61 40.1522 Q1238.61 35.8893 1237.3 33.389 Q1235.99 30.8477 1232.38 30.8477 Q1228.04 30.8477 1224.55 34.4957 Q1221.07 38.1437 1221.07 44.2921 L1221.07 59.7041 Q1221.07 62.4094 1222.1 62.9833 Q1223.16 63.5161 1227.59 63.5161 L1227.59 66.0984 Q1219.02 65.8525 1218.2 65.8525 Q1217.55 65.8525 1208.73 66.0984 Z" fill="#000000" fill-rule="evenodd" fill-opacity="1" /><path clip-path="url(#clip570)" d="M 0 0 M1283.48 61.5896 Q1277.95 56.0971 1277.95 48.1451 Q1277.95 40.1522 1283.36 34.3317 Q1288.81 28.4703 1296.6 28.4703 Q1304.22 28.4703 1309.67 34.2908 Q1315.17 40.0702 1315.17 48.1451 Q1315.17 56.0561 1309.63 61.5486 Q1304.14 67.0412 1296.52 67.0412 Q1289.06 67.0412 1283.48 61.5896 M1284.92 47.4483 Q1284.92 55.6052 1287.05 59.2942 Q1290.33 64.9097 1296.6 64.9097 Q1299.71 64.9097 1302.3 63.2292 Q1304.92 61.5486 1306.35 58.7204 Q1308.2 55.0313 1308.2 47.4483 Q1308.2 39.3734 1305.99 35.8074 Q1302.71 30.3558 1296.52 30.3558 Q1293.81 30.3558 1291.15 31.7904 Q1288.52 33.184 1286.93 35.9713 Q1284.92 39.6604 1284.92 47.4483 Z" fill="#000000" fill-rule="evenodd" fill-opacity="1" /><path clip-path="url(#clip570)" d="M 0 0 M1319.52 66.0984 L1319.52 63.5161 Q1323.99 63.5161 1325.01 62.9833 Q1326.04 62.4094 1326.04 59.7041 L1326.04 37.201 Q1326.04 34.0858 1324.93 33.307 Q1323.86 32.5282 1319.52 32.5282 L1319.52 29.9049 L1331.32 29.0031 L1331.32 37.8158 Q1335.26 29.0031 1343.74 29.0031 Q1350.06 29.0031 1352.56 32.1183 Q1354.4 34.2088 1354.77 36.5452 Q1355.18 38.8816 1355.18 44.948 L1355.18 60.9748 Q1355.26 62.7373 1356.61 63.1472 Q1357.97 63.5161 1361.74 63.5161 L1361.74 66.0984 Q1353.17 65.8525 1352.31 65.8525 Q1351.66 65.8525 1342.84 66.0984 L1342.84 63.5161 Q1347.31 63.5161 1348.33 62.9833 Q1349.4 62.4094 1349.4 59.7041 L1349.4 40.1522 Q1349.4 35.8893 1348.09 33.389 Q1346.78 30.8477 1343.17 30.8477 Q1338.83 30.8477 1335.34 34.4957 Q1331.86 38.1437 1331.86 44.2921 L1331.86 59.7041 Q1331.86 62.4094 1332.88 62.9833 Q1333.95 63.5161 1338.37 63.5161 L1338.37 66.0984 Q1329.81 65.8525 1328.99 65.8525 Q1328.33 65.8525 1319.52 66.0984 Z" fill="#000000" fill-rule="evenodd" fill-opacity="1" /><path clip-path="url(#clip570)" d="M 0 0 M1371.17 61.5896 Q1365.64 56.0971 1365.64 48.1451 Q1365.64 40.1522 1371.05 34.3317 Q1376.5 28.4703 1384.29 28.4703 Q1391.91 28.4703 1397.36 34.2908 Q1402.85 40.0702 1402.85 48.1451 Q1402.85 56.0561 1397.32 61.5486 Q1391.83 67.0412 1384.2 67.0412 Q1376.74 67.0412 1371.17 61.5896 M1372.6 47.4483 Q1372.6 55.6052 1374.74 59.2942 Q1378.02 64.9097 1384.29 64.9097 Q1387.4 64.9097 1389.98 63.2292 Q1392.61 61.5486 1394.04 58.7204 Q1395.89 55.0313 1395.89 47.4483 Q1395.89 39.3734 1393.67 35.8074 Q1390.39 30.3558 1384.2 30.3558 Q1381.5 30.3558 1378.84 31.7904 Q1376.21 33.184 1374.61 35.9713 Q1372.6 39.6604 1372.6 47.4483 Z" fill="#000000" fill-rule="evenodd" fill-opacity="1" /><path clip-path="url(#clip570)" d="M 0 0 M1407.21 66.0984 L1407.21 63.5161 Q1411.67 63.5161 1412.7 62.9833 Q1413.72 62.4094 1413.72 59.7041 L1413.72 37.201 Q1413.72 34.0858 1412.62 33.307 Q1411.55 32.5282 1407.21 32.5282 L1407.21 29.9049 L1419.01 29.0031 L1419.01 37.8158 Q1422.95 29.0031 1431.43 29.0031 Q1441.27 29.0031 1442.62 37.201 Q1444.06 34.0038 1447.05 31.5035 Q1450.08 29.0031 1454.8 29.0031 Q1461.11 29.0031 1463.61 32.1183 Q1465.45 34.2088 1465.82 36.5452 Q1466.19 38.8816 1466.19 44.948 L1466.19 60.9748 Q1466.27 62.7373 1467.63 63.1472 Q1468.98 63.5161 1472.75 63.5161 L1472.75 66.0984 Q1464.18 65.8525 1463.36 65.8525 Q1462.71 65.8525 1453.85 66.0984 L1453.85 63.5161 Q1458.32 63.5161 1459.35 62.9833 Q1460.41 62.4094 1460.41 59.7041 L1460.41 40.1522 Q1460.41 35.8893 1459.1 33.389 Q1457.79 30.8477 1454.18 30.8477 Q1449.84 30.8477 1446.35 34.4957 Q1442.87 38.1437 1442.87 44.2921 L1442.87 59.7041 Q1442.87 62.4094 1443.89 62.9833 Q1444.96 63.5161 1449.43 63.5161 L1449.43 66.0984 Q1440.86 65.8525 1440 65.8525 Q1439.34 65.8525 1430.53 66.0984 L1430.53 63.5161 Q1435 63.5161 1436.02 62.9833 Q1437.09 62.4094 1437.09 59.7041 L1437.09 40.1522 Q1437.09 35.8893 1435.78 33.389 Q1434.46 30.8477 1430.86 30.8477 Q1426.51 30.8477 1423.03 34.4957 Q1419.54 38.1437 1419.54 44.2921 L1419.54 59.7041 Q1419.54 62.4094 1420.57 62.9833 Q1421.64 63.5161 1426.06 63.5161 L1426.06 66.0984 Q1417.5 65.8525 1416.68 65.8525 Q1416.02 65.8525 1407.21 66.0984 Z" fill="#000000" fill-rule="evenodd" fill-opacity="1" /><path clip-path="url(#clip570)" d="M 0 0 M1476.42 47.6123 Q1476.42 39.7013 1481.51 34.0858 Q1486.59 28.4703 1493.88 28.4703 Q1501.26 28.4703 1505.07 33.266 Q1508.93 38.0618 1508.93 44.948 Q1508.93 46.2186 1508.6 46.4646 Q1508.27 46.7105 1506.84 46.7105 L1483.39 46.7105 Q1483.39 55.2773 1485.93 59.2942 Q1489.46 64.9097 1495.4 64.9097 Q1496.22 64.9097 1497.2 64.7458 Q1498.19 64.5818 1500.2 63.885 Q1502.21 63.1472 1503.97 61.2207 Q1505.73 59.2942 1506.76 56.261 Q1507 55.0723 1507.82 55.1133 Q1508.93 55.1133 1508.93 56.0971 Q1508.93 56.8349 1508.11 58.5154 Q1507.33 60.155 1505.81 62.1225 Q1504.3 64.09 1501.34 65.5656 Q1498.43 67.0412 1494.91 67.0412 Q1487.53 67.0412 1481.96 61.4666 Q1476.42 55.8511 1476.42 47.6123 M1483.47 44.948 L1503.39 44.948 Q1503.39 43.1854 1503.07 41.2179 Q1502.78 39.2505 1501.88 36.5452 Q1501.02 33.7989 1498.97 32.0773 Q1496.92 30.3558 1493.88 30.3558 Q1492.53 30.3558 1491.06 30.9296 Q1489.62 31.5035 1487.86 32.8971 Q1486.1 34.2908 1484.87 37.4469 Q1483.64 40.6031 1483.47 44.948 Z" fill="#000000" fill-rule="evenodd" fill-opacity="1" /><path clip-path="url(#clip570)" d="M 0 0 M1513.32 66.0984 L1513.32 63.5161 Q1517.79 63.5161 1518.82 62.9833 Q1519.88 62.4094 1519.88 59.7041 L1519.88 37.201 Q1519.88 34.0858 1518.78 33.307 Q1517.71 32.5282 1513.32 32.5282 L1513.32 29.9049 L1525.01 29.0031 L1525.01 38.2257 Q1526.2 34.6187 1528.7 31.8314 Q1531.24 29.0031 1535.34 29.0031 Q1538.04 29.0031 1539.76 30.5197 Q1541.53 32.0363 1541.53 34.1268 Q1541.53 35.9713 1540.38 36.9141 Q1539.27 37.8158 1537.92 37.8158 Q1536.4 37.8158 1535.34 36.8731 Q1534.31 35.8893 1534.31 34.2088 Q1534.31 33.184 1534.76 32.4053 Q1535.25 31.5855 1535.62 31.2985 Q1535.99 31.0116 1536.24 30.9296 Q1536.07 30.8477 1535.34 30.8477 Q1530.7 30.8477 1528.04 35.4794 Q1525.42 40.0702 1525.42 46.6285 L1525.42 59.5402 Q1525.42 61.9585 1526.4 62.7373 Q1527.43 63.5161 1531.81 63.5161 L1533.57 63.5161 L1533.57 66.0984 Q1530.21 65.8525 1522.92 65.8525 Q1521.89 65.8525 1520.29 65.8935 Q1518.69 65.9345 1516.6 66.0165 Q1514.51 66.0984 1513.32 66.0984 Z" fill="#000000" fill-rule="evenodd" fill-opacity="1" /><path clip-path="url(#clip570)" d="M 0 0 M1573.45 32.5282 L1573.45 29.9049 L1580.05 29.9049 L1580.05 20.2724 Q1580.05 14.0421 1584.06 10.476 Q1588.12 6.90992 1593.08 6.90992 Q1596.36 6.90992 1598.49 8.67246 Q1600.62 10.435 1600.62 12.8124 Q1600.62 14.411 1599.64 15.4767 Q1598.7 16.5014 1596.93 16.5014 Q1595.25 16.5014 1594.27 15.4357 Q1593.33 14.37 1593.33 12.8944 Q1593.33 10.1891 1595.83 9.36928 Q1594.56 8.79543 1593.08 8.75444 Q1590.05 8.75444 1587.67 11.8696 Q1585.33 14.9848 1585.33 20.1904 L1585.33 29.9049 L1595.17 29.9049 L1595.17 32.5282 L1585.62 32.5282 L1585.62 59.5402 Q1585.62 61.9585 1586.61 62.7373 Q1587.63 63.5161 1591.97 63.5161 L1593.74 63.5161 L1593.74 66.0984 Q1590.38 65.8525 1583.08 65.8525 Q1582.06 65.8525 1580.46 65.8935 Q1578.9 65.9345 1576.77 66.0165 Q1574.68 66.0984 1573.53 66.0984 L1573.53 63.5161 Q1578 63.5161 1579.02 62.9833 Q1580.05 62.4094 1580.05 59.7041 L1580.05 32.5282 L1573.45 32.5282 Z" fill="#000000" fill-rule="evenodd" fill-opacity="1" /><path clip-path="url(#clip570)" d="M 0 0 M1599.81 61.5896 Q1594.28 56.0971 1594.28 48.1451 Q1594.28 40.1522 1599.69 34.3317 Q1605.14 28.4703 1612.93 28.4703 Q1620.55 28.4703 1626.01 34.2908 Q1631.5 40.0702 1631.5 48.1451 Q1631.5 56.0561 1625.96 61.5486 Q1620.47 67.0412 1612.85 67.0412 Q1605.39 67.0412 1599.81 61.5896 M1601.25 47.4483 Q1601.25 55.6052 1603.38 59.2942 Q1606.66 64.9097 1612.93 64.9097 Q1616.04 64.9097 1618.63 63.2292 Q1621.25 61.5486 1622.68 58.7204 Q1624.53 55.0313 1624.53 47.4483 Q1624.53 39.3734 1622.32 35.8074 Q1619.04 30.3558 1612.85 30.3558 Q1610.14 30.3558 1607.48 31.7904 Q1604.85 33.184 1603.26 35.9713 Q1601.25 39.6604 1601.25 47.4483 Z" fill="#000000" fill-rule="evenodd" fill-opacity="1" /><path clip-path="url(#clip570)" d="M 0 0 M1635.85 66.0984 L1635.85 63.5161 Q1640.32 63.5161 1641.34 62.9833 Q1642.41 62.4094 1642.41 59.7041 L1642.41 37.201 Q1642.41 34.0858 1641.3 33.307 Q1640.24 32.5282 1635.85 32.5282 L1635.85 29.9049 L1647.53 29.0031 L1647.53 38.2257 Q1648.72 34.6187 1651.22 31.8314 Q1653.76 29.0031 1657.86 29.0031 Q1660.57 29.0031 1662.29 30.5197 Q1664.05 32.0363 1664.05 34.1268 Q1664.05 35.9713 1662.9 36.9141 Q1661.8 37.8158 1660.44 37.8158 Q1658.93 37.8158 1657.86 36.8731 Q1656.84 35.8893 1656.84 34.2088 Q1656.84 33.184 1657.29 32.4053 Q1657.78 31.5855 1658.15 31.2985 Q1658.52 31.0116 1658.76 30.9296 Q1658.6 30.8477 1657.86 30.8477 Q1653.23 30.8477 1650.56 35.4794 Q1647.94 40.0702 1647.94 46.6285 L1647.94 59.5402 Q1647.94 61.9585 1648.93 62.7373 Q1649.95 63.5161 1654.34 63.5161 L1656.1 63.5161 L1656.1 66.0984 Q1652.74 65.8525 1645.44 65.8525 Q1644.42 65.8525 1642.82 65.8935 Q1641.22 65.9345 1639.13 66.0165 Q1637.04 66.0984 1635.85 66.0984 Z" fill="#000000" fill-rule="evenodd" fill-opacity="1" /><path clip-path="url(#clip570)" d="M 0 0 M1701.3 61.5076 Q1695.97 55.9331 1695.97 47.9812 Q1695.97 39.9883 1701.22 34.2498 Q1706.47 28.4703 1714.17 28.4703 Q1719.3 28.4703 1723.15 30.9296 Q1727 33.348 1727 37.4879 Q1727 39.3324 1725.89 40.3982 Q1724.83 41.4229 1723.15 41.4229 Q1721.39 41.4229 1720.32 40.3572 Q1719.3 39.2505 1719.3 37.5699 Q1719.3 36.8321 1719.54 36.0943 Q1719.79 35.3565 1720.69 34.5777 Q1721.63 33.7989 1723.23 33.6759 Q1720.24 30.6017 1714.42 30.6017 Q1714.34 30.6017 1714.25 30.6017 Q1709.99 30.6017 1706.47 34.6187 Q1702.94 38.6356 1702.94 47.8172 Q1702.94 52.613 1704.09 56.138 Q1705.28 59.6221 1707.2 61.4257 Q1709.13 63.2292 1711.02 64.09 Q1712.9 64.9097 1714.75 64.9097 Q1722.98 64.9097 1725.77 56.0971 Q1726.02 55.2773 1726.84 55.2773 Q1727.94 55.2773 1727.94 56.0971 Q1727.94 56.5069 1727.62 57.5727 Q1727.29 58.6384 1726.26 60.3189 Q1725.24 61.9995 1723.76 63.4751 Q1722.33 64.9097 1719.75 65.9755 Q1717.2 67.0412 1714.01 67.0412 Q1706.63 67.0412 1701.3 61.5076 Z" fill="#000000" fill-rule="evenodd" fill-opacity="1" /><path clip-path="url(#clip570)" d="M 0 0 M1732.87 66.0984 L1732.87 63.5161 Q1737.34 63.5161 1738.37 62.9833 Q1739.43 62.4094 1739.43 59.7041 L1739.43 37.201 Q1739.43 34.0858 1738.33 33.307 Q1737.26 32.5282 1732.87 32.5282 L1732.87 29.9049 L1744.56 29.0031 L1744.56 38.2257 Q1745.74 34.6187 1748.25 31.8314 Q1750.79 29.0031 1754.89 29.0031 Q1757.59 29.0031 1759.31 30.5197 Q1761.07 32.0363 1761.07 34.1268 Q1761.07 35.9713 1759.93 36.9141 Q1758.82 37.8158 1757.47 37.8158 Q1755.95 37.8158 1754.89 36.8731 Q1753.86 35.8893 1753.86 34.2088 Q1753.86 33.184 1754.31 32.4053 Q1754.8 31.5855 1755.17 31.2985 Q1755.54 31.0116 1755.79 30.9296 Q1755.62 30.8477 1754.89 30.8477 Q1750.25 30.8477 1747.59 35.4794 Q1744.97 40.0702 1744.97 46.6285 L1744.97 59.5402 Q1744.97 61.9585 1745.95 62.7373 Q1746.97 63.5161 1751.36 63.5161 L1753.12 63.5161 L1753.12 66.0984 Q1749.76 65.8525 1742.47 65.8525 Q1741.44 65.8525 1739.84 65.8935 Q1738.24 65.9345 1736.15 66.0165 Q1734.06 66.0984 1732.87 66.0984 Z" fill="#000000" fill-rule="evenodd" fill-opacity="1" /><path clip-path="url(#clip570)" d="M 0 0 M1763.98 58.1055 Q1763.98 50.9734 1772.38 47.2024 Q1777.42 44.784 1787.83 44.1692 L1787.83 41.095 Q1787.83 35.8893 1785.09 33.1431 Q1782.38 30.3558 1778.94 30.3558 Q1772.79 30.3558 1769.84 34.2088 Q1772.34 34.2908 1773.24 35.5614 Q1774.14 36.7911 1774.14 38.0618 Q1774.14 39.7423 1773.08 40.849 Q1772.05 41.9148 1770.29 41.9148 Q1768.61 41.9148 1767.5 40.89 Q1766.39 39.8243 1766.39 37.9798 Q1766.39 33.8809 1770.08 31.1756 Q1773.81 28.4703 1779.1 28.4703 Q1785.99 28.4703 1790.58 33.1021 Q1792.01 34.5367 1792.71 36.3812 Q1793.45 38.2257 1793.53 39.4554 Q1793.61 40.6441 1793.61 43.0215 L1793.61 59.7861 Q1793.61 60.278 1793.78 61.0977 Q1793.94 61.9175 1794.68 62.9833 Q1795.46 64.008 1796.73 64.008 Q1799.76 64.008 1799.72 58.6384 L1799.72 53.9246 L1801.85 53.9246 L1801.85 58.6384 Q1801.85 63.1062 1799.47 64.8688 Q1797.14 66.5903 1794.96 66.5903 Q1792.18 66.5903 1790.41 64.5408 Q1788.65 62.4914 1788.41 59.7041 Q1787.13 62.9013 1784.22 64.9917 Q1781.36 67.0412 1777.42 67.0412 Q1774.39 67.0412 1771.52 66.2624 Q1768.69 65.5246 1766.31 63.4341 Q1763.98 61.3027 1763.98 58.1055 M1770.45 58.0235 Q1770.45 61.1387 1772.67 63.1472 Q1774.88 65.1557 1777.99 65.1557 Q1781.52 65.1557 1784.68 62.4504 Q1787.83 59.7041 1787.83 54.3345 L1787.83 45.9317 Q1778.53 46.2596 1774.47 49.9897 Q1770.45 53.6787 1770.45 58.0235 Z" fill="#000000" fill-rule="evenodd" fill-opacity="1" /><path clip-path="url(#clip570)" d="M 0 0 M1805.55 66.0984 L1805.55 63.5161 Q1810.01 63.5161 1811.04 62.9833 Q1812.06 62.4094 1812.06 59.7041 L1812.06 37.201 Q1812.06 34.0858 1810.96 33.307 Q1809.89 32.5282 1805.55 32.5282 L1805.55 29.9049 L1817.35 29.0031 L1817.35 37.8158 Q1821.29 29.0031 1829.77 29.0031 Q1839.61 29.0031 1840.96 37.201 Q1842.4 34.0038 1845.39 31.5035 Q1848.42 29.0031 1853.13 29.0031 Q1859.45 29.0031 1861.95 32.1183 Q1863.79 34.2088 1864.16 36.5452 Q1864.53 38.8816 1864.53 44.948 L1864.53 60.9748 Q1864.61 62.7373 1865.96 63.1472 Q1867.32 63.5161 1871.09 63.5161 L1871.09 66.0984 Q1862.52 65.8525 1861.7 65.8525 Q1861.05 65.8525 1852.19 66.0984 L1852.19 63.5161 Q1856.66 63.5161 1857.68 62.9833 Q1858.75 62.4094 1858.75 59.7041 L1858.75 40.1522 Q1858.75 35.8893 1857.44 33.389 Q1856.13 30.8477 1852.52 30.8477 Q1848.18 30.8477 1844.69 34.4957 Q1841.21 38.1437 1841.21 44.2921 L1841.21 59.7041 Q1841.21 62.4094 1842.23 62.9833 Q1843.3 63.5161 1847.77 63.5161 L1847.77 66.0984 Q1839.2 65.8525 1838.34 65.8525 Q1837.68 65.8525 1828.87 66.0984 L1828.87 63.5161 Q1833.34 63.5161 1834.36 62.9833 Q1835.43 62.4094 1835.43 59.7041 L1835.43 40.1522 Q1835.43 35.8893 1834.12 33.389 Q1832.8 30.8477 1829.2 30.8477 Q1824.85 30.8477 1821.37 34.4957 Q1817.88 38.1437 1817.88 44.2921 L1817.88 59.7041 Q1817.88 62.4094 1818.91 62.9833 Q1819.97 63.5161 1824.4 63.5161 L1824.4 66.0984 Q1815.83 65.8525 1815.01 65.8525 Q1814.36 65.8525 1805.55 66.0984 Z" fill="#000000" fill-rule="evenodd" fill-opacity="1" /><path clip-path="url(#clip570)" d="M 0 0 M1874.76 11.3778 L1874.76 8.75444 L1886.85 7.85267 L1886.85 34.4547 Q1891.73 29.0031 1898.37 29.0031 Q1905.59 29.0031 1910.87 34.5367 Q1916.16 40.0702 1916.16 47.9812 Q1916.16 55.9741 1910.63 61.5076 Q1905.09 67.0412 1897.43 67.0412 Q1890.46 67.0412 1886.44 60.8928 Q1883.49 66.0165 1883.41 66.0984 L1881.32 66.0984 L1881.32 16.0505 Q1881.32 12.9353 1880.21 12.1565 Q1879.11 11.3778 1874.76 11.3778 M1887.1 56.5479 Q1887.1 58.3105 1888.29 60.073 Q1891.61 65.1557 1897.02 65.1557 Q1897.06 65.1557 1897.1 65.1557 Q1902.96 65.1557 1906.61 59.7861 Q1909.19 55.7691 1909.19 47.8992 Q1909.19 40.1112 1906.78 36.2173 Q1903.41 30.8477 1897.96 30.8477 Q1891.81 30.8477 1888.04 36.2173 Q1887.1 37.5699 1887.1 39.2505 L1887.1 56.5479 Z" fill="#000000" fill-rule="evenodd" fill-opacity="1" /><path clip-path="url(#clip570)" d="M 0 0 M1920.88 66.0984 L1920.88 63.5161 Q1925.35 63.5161 1926.37 62.9833 Q1927.4 62.4094 1927.4 59.7041 L1927.4 37.119 Q1927.4 34.0038 1926.33 33.266 Q1925.31 32.5282 1921.21 32.5282 L1921.21 29.9049 L1932.93 29.0031 L1932.93 59.7861 Q1932.93 62.2864 1933.83 62.9013 Q1934.73 63.5161 1938.83 63.5161 L1938.83 66.0984 Q1930.27 65.8525 1930.1 65.8525 Q1928.95 65.8525 1920.88 66.0984 M1924.4 14.37 Q1924.4 12.6894 1925.68 11.3368 Q1926.99 9.94313 1928.83 9.94313 Q1930.68 9.94313 1931.99 11.2138 Q1933.3 12.4435 1933.3 14.411 Q1933.3 16.3375 1931.99 17.6081 Q1930.68 18.8378 1928.83 18.8378 Q1926.9 18.8378 1925.63 17.4852 Q1924.4 16.1325 1924.4 14.37 Z" fill="#000000" fill-rule="evenodd" fill-opacity="1" /><path clip-path="url(#clip570)" d="M 0 0 M1943.9 66.0984 L1943.9 63.5161 Q1948.37 63.5161 1949.39 62.9833 Q1950.41 62.4094 1950.41 59.7041 L1950.41 37.201 Q1950.41 34.0858 1949.31 33.307 Q1948.24 32.5282 1943.9 32.5282 L1943.9 29.9049 L1955.7 29.0031 L1955.7 37.8158 Q1959.64 29.0031 1968.12 29.0031 Q1974.43 29.0031 1976.93 32.1183 Q1978.78 34.2088 1979.15 36.5452 Q1979.56 38.8816 1979.56 44.948 L1979.56 60.9748 Q1979.64 62.7373 1980.99 63.1472 Q1982.35 63.5161 1986.12 63.5161 L1986.12 66.0984 Q1977.55 65.8525 1976.69 65.8525 Q1976.03 65.8525 1967.22 66.0984 L1967.22 63.5161 Q1971.69 63.5161 1972.71 62.9833 Q1973.78 62.4094 1973.78 59.7041 L1973.78 40.1522 Q1973.78 35.8893 1972.47 33.389 Q1971.16 30.8477 1967.55 30.8477 Q1963.2 30.8477 1959.72 34.4957 Q1956.24 38.1437 1956.24 44.2921 L1956.24 59.7041 Q1956.24 62.4094 1957.26 62.9833 Q1958.33 63.5161 1962.75 63.5161 L1962.75 66.0984 Q1954.19 65.8525 1953.37 65.8525 Q1952.71 65.8525 1943.9 66.0984 Z" fill="#000000" fill-rule="evenodd" fill-opacity="1" /><path clip-path="url(#clip572)" d="
M279.442 1379.45 L306.643 1379.45 L333.845 1392.31 L361.047 1384.26 L388.248 1382.81 L415.45 1388.07 L442.652 1382.3 L469.854 1371.5 L497.055 1403.62 L524.257 1375.91 
  L551.459 1353.89 L578.66 1345.2 L605.862 1330.05 L633.064 1247.89 L660.266 1391.55 L687.467 1216.11 L714.669 1119.07 L741.871 942.551 L769.072 1043.77 L796.274 1024.73 
  L823.476 982.42 L850.677 992.256 L877.879 906.2 L905.081 973.965 L932.283 1029.37 L959.484 1004.08 L986.686 973.216 L1013.89 1019.77 L1041.09 1025.78 L1068.29 1078.85 
  L1095.49 1095.24 L1122.69 1111.04 L1149.9 1121.37 L1177.1 1155.28 L1204.3 1178.51 L1231.5 1162.31 L1258.7 1218.4 L1285.9 1195.91 L1313.11 1229.82 L1340.31 1218.2 
  L1367.51 1216.31 L1394.71 1232.38 L1421.91 1239.84 L1449.12 1254.36 L1476.32 1261.85 L1503.52 1286.26 L1530.72 1288.59 L1557.92 1270.66 L1585.12 1266.85 L1612.33 1297.24 
  L1639.53 1288.78 L1666.73 1281.03 L1693.93 1297.69 L1721.13 1296.92 L1748.33 1305.01 L1775.54 1294.66 L1802.74 1306.08 L1829.94 1305.59 L1857.14 1308.72 L1884.34 1307.4 
  L1911.54 1319.28 L1938.75 1336.75 L1965.95 1318.68 L1993.15 1330.11 L2020.35 1331.94 L2047.55 1329.32 L2074.75 1336.27 L2101.96 1333.18 L2129.16 1333.43 L2156.36 1334.13 
  L2183.56 1341.26 L2210.76 1336.54 L2237.96 1340.38 L2265.17 1342.38 L2292.37 1341.52 L2292.37 1323.54 L2265.17 1318.59 L2237.96 1311.42 L2210.76 1314.92 L2183.56 1308.56 
  L2156.36 1302.79 L2129.16 1307.41 L2101.96 1300.29 L2074.75 1302.94 L2047.55 1294.32 L2020.35 1295.76 L1993.15 1271.89 L1965.95 1281.57 L1938.75 1289.63 L1911.54 1269.71 
  L1884.34 1274.02 L1857.14 1269.72 L1829.94 1268.1 L1802.74 1253.42 L1775.54 1229.96 L1748.33 1261.25 L1721.13 1222.85 L1693.93 1231.57 L1666.73 1224.21 L1639.53 1210 
  L1612.33 1210.05 L1585.12 1228.49 L1557.92 1217.21 L1530.72 1222.91 L1503.52 1152.16 L1476.32 1140.86 L1449.12 1102.36 L1421.91 1086.02 L1394.71 1099.3 L1367.51 1119.21 
  L1340.31 1026.85 L1313.11 1055.89 L1285.9 1038.86 L1258.7 998.577 L1231.5 1040.56 L1204.3 1008.81 L1177.1 997.583 L1149.9 889.353 L1122.69 820.687 L1095.49 797.579 
  L1068.29 605.375 L1041.09 720.57 L1013.89 600.68 L986.686 587.962 L959.484 507.753 L932.283 437.523 L905.081 521.306 L877.879 365.705 L850.677 150.411 L823.476 212.136 
  L796.274 559.54 L769.072 370.368 L741.871 360.877 L714.669 563.849 L687.467 499.98 L660.266 231.004 L633.064 778.966 L605.862 784.302 L578.66 735.946 L551.459 679.808 
  L524.257 1018.32 L497.055 1139.14 L469.854 1222.77 L442.652 1331.79 L415.45 1339.91 L388.248 1352.28 L361.047 1360.22 L333.845 1354.64 L306.643 1379.45 L279.442 1379.45 
   Z
  " fill="#7f66cc" fill-rule="evenodd" fill-opacity="0.5"/>
<circle clip-path="url(#clip572)" cx="279.442" cy="1379.45" r="12" fill="#7f66cc" fill-rule="evenodd" fill-opacity="0.9" stroke="#000000" stroke-opacity="0.9" stroke-width="3.2"/>
<circle clip-path="url(#clip572)" cx="306.643" cy="1379.45" r="12" fill="#7f66cc" fill-rule="evenodd" fill-opacity="0.9" stroke="#000000" stroke-opacity="0.9" stroke-width="3.2"/>
<circle clip-path="url(#clip572)" cx="333.845" cy="1373.48" r="12" fill="#7f66cc" fill-rule="evenodd" fill-opacity="0.9" stroke="#000000" stroke-opacity="0.9" stroke-width="3.2"/>
<circle clip-path="url(#clip572)" cx="361.047" cy="1372.24" r="12" fill="#7f66cc" fill-rule="evenodd" fill-opacity="0.9" stroke="#000000" stroke-opacity="0.9" stroke-width="3.2"/>
<circle clip-path="url(#clip572)" cx="388.248" cy="1367.55" r="12" fill="#7f66cc" fill-rule="evenodd" fill-opacity="0.9" stroke="#000000" stroke-opacity="0.9" stroke-width="3.2"/>
<circle clip-path="url(#clip572)" cx="415.45" cy="1363.99" r="12" fill="#7f66cc" fill-rule="evenodd" fill-opacity="0.9" stroke="#000000" stroke-opacity="0.9" stroke-width="3.2"/>
<circle clip-path="url(#clip572)" cx="442.652" cy="1357.05" r="12" fill="#7f66cc" fill-rule="evenodd" fill-opacity="0.9" stroke="#000000" stroke-opacity="0.9" stroke-width="3.2"/>
<circle clip-path="url(#clip572)" cx="469.854" cy="1297.13" r="12" fill="#7f66cc" fill-rule="evenodd" fill-opacity="0.9" stroke="#000000" stroke-opacity="0.9" stroke-width="3.2"/>
<circle clip-path="url(#clip572)" cx="497.055" cy="1271.38" r="12" fill="#7f66cc" fill-rule="evenodd" fill-opacity="0.9" stroke="#000000" stroke-opacity="0.9" stroke-width="3.2"/>
<circle clip-path="url(#clip572)" cx="524.257" cy="1197.11" r="12" fill="#7f66cc" fill-rule="evenodd" fill-opacity="0.9" stroke="#000000" stroke-opacity="0.9" stroke-width="3.2"/>
<circle clip-path="url(#clip572)" cx="551.459" cy="1016.85" r="12" fill="#7f66cc" fill-rule="evenodd" fill-opacity="0.9" stroke="#000000" stroke-opacity="0.9" stroke-width="3.2"/>
<circle clip-path="url(#clip572)" cx="578.66" cy="1040.57" r="12" fill="#7f66cc" fill-rule="evenodd" fill-opacity="0.9" stroke="#000000" stroke-opacity="0.9" stroke-width="3.2"/>
<circle clip-path="url(#clip572)" cx="605.862" cy="1057.18" r="12" fill="#7f66cc" fill-rule="evenodd" fill-opacity="0.9" stroke="#000000" stroke-opacity="0.9" stroke-width="3.2"/>
<circle clip-path="url(#clip572)" cx="633.064" cy="1013.43" r="12" fill="#7f66cc" fill-rule="evenodd" fill-opacity="0.9" stroke="#000000" stroke-opacity="0.9" stroke-width="3.2"/>
<circle clip-path="url(#clip572)" cx="660.266" cy="811.276" r="12" fill="#7f66cc" fill-rule="evenodd" fill-opacity="0.9" stroke="#000000" stroke-opacity="0.9" stroke-width="3.2"/>
<circle clip-path="url(#clip572)" cx="687.467" cy="858.045" r="12" fill="#7f66cc" fill-rule="evenodd" fill-opacity="0.9" stroke="#000000" stroke-opacity="0.9" stroke-width="3.2"/>
<circle clip-path="url(#clip572)" cx="714.669" cy="841.458" r="12" fill="#7f66cc" fill-rule="evenodd" fill-opacity="0.9" stroke="#000000" stroke-opacity="0.9" stroke-width="3.2"/>
<circle clip-path="url(#clip572)" cx="741.871" cy="651.714" r="12" fill="#7f66cc" fill-rule="evenodd" fill-opacity="0.9" stroke="#000000" stroke-opacity="0.9" stroke-width="3.2"/>
<circle clip-path="url(#clip572)" cx="769.072" cy="707.066" r="12" fill="#7f66cc" fill-rule="evenodd" fill-opacity="0.9" stroke="#000000" stroke-opacity="0.9" stroke-width="3.2"/>
<circle clip-path="url(#clip572)" cx="796.274" cy="792.137" r="12" fill="#7f66cc" fill-rule="evenodd" fill-opacity="0.9" stroke="#000000" stroke-opacity="0.9" stroke-width="3.2"/>
<circle clip-path="url(#clip572)" cx="823.476" cy="597.278" r="12" fill="#7f66cc" fill-rule="evenodd" fill-opacity="0.9" stroke="#000000" stroke-opacity="0.9" stroke-width="3.2"/>
<circle clip-path="url(#clip572)" cx="850.677" cy="571.334" r="12" fill="#7f66cc" fill-rule="evenodd" fill-opacity="0.9" stroke="#000000" stroke-opacity="0.9" stroke-width="3.2"/>
<circle clip-path="url(#clip572)" cx="877.879" cy="635.953" r="12" fill="#7f66cc" fill-rule="evenodd" fill-opacity="0.9" stroke="#000000" stroke-opacity="0.9" stroke-width="3.2"/>
<circle clip-path="url(#clip572)" cx="905.081" cy="747.635" r="12" fill="#7f66cc" fill-rule="evenodd" fill-opacity="0.9" stroke="#000000" stroke-opacity="0.9" stroke-width="3.2"/>
<circle clip-path="url(#clip572)" cx="932.283" cy="733.448" r="12" fill="#7f66cc" fill-rule="evenodd" fill-opacity="0.9" stroke="#000000" stroke-opacity="0.9" stroke-width="3.2"/>
<circle clip-path="url(#clip572)" cx="959.484" cy="755.917" r="12" fill="#7f66cc" fill-rule="evenodd" fill-opacity="0.9" stroke="#000000" stroke-opacity="0.9" stroke-width="3.2"/>
<circle clip-path="url(#clip572)" cx="986.686" cy="780.589" r="12" fill="#7f66cc" fill-rule="evenodd" fill-opacity="0.9" stroke="#000000" stroke-opacity="0.9" stroke-width="3.2"/>
<circle clip-path="url(#clip572)" cx="1013.89" cy="810.225" r="12" fill="#7f66cc" fill-rule="evenodd" fill-opacity="0.9" stroke="#000000" stroke-opacity="0.9" stroke-width="3.2"/>
<circle clip-path="url(#clip572)" cx="1041.09" cy="873.177" r="12" fill="#7f66cc" fill-rule="evenodd" fill-opacity="0.9" stroke="#000000" stroke-opacity="0.9" stroke-width="3.2"/>
<circle clip-path="url(#clip572)" cx="1068.29" cy="842.111" r="12" fill="#7f66cc" fill-rule="evenodd" fill-opacity="0.9" stroke="#000000" stroke-opacity="0.9" stroke-width="3.2"/>
<circle clip-path="url(#clip572)" cx="1095.49" cy="946.409" r="12" fill="#7f66cc" fill-rule="evenodd" fill-opacity="0.9" stroke="#000000" stroke-opacity="0.9" stroke-width="3.2"/>
<circle clip-path="url(#clip572)" cx="1122.69" cy="965.865" r="12" fill="#7f66cc" fill-rule="evenodd" fill-opacity="0.9" stroke="#000000" stroke-opacity="0.9" stroke-width="3.2"/>
<circle clip-path="url(#clip572)" cx="1149.9" cy="1005.36" r="12" fill="#7f66cc" fill-rule="evenodd" fill-opacity="0.9" stroke="#000000" stroke-opacity="0.9" stroke-width="3.2"/>
<circle clip-path="url(#clip572)" cx="1177.1" cy="1076.43" r="12" fill="#7f66cc" fill-rule="evenodd" fill-opacity="0.9" stroke="#000000" stroke-opacity="0.9" stroke-width="3.2"/>
<circle clip-path="url(#clip572)" cx="1204.3" cy="1093.66" r="12" fill="#7f66cc" fill-rule="evenodd" fill-opacity="0.9" stroke="#000000" stroke-opacity="0.9" stroke-width="3.2"/>
<circle clip-path="url(#clip572)" cx="1231.5" cy="1101.44" r="12" fill="#7f66cc" fill-rule="evenodd" fill-opacity="0.9" stroke="#000000" stroke-opacity="0.9" stroke-width="3.2"/>
<circle clip-path="url(#clip572)" cx="1258.7" cy="1108.49" r="12" fill="#7f66cc" fill-rule="evenodd" fill-opacity="0.9" stroke="#000000" stroke-opacity="0.9" stroke-width="3.2"/>
<circle clip-path="url(#clip572)" cx="1285.9" cy="1117.38" r="12" fill="#7f66cc" fill-rule="evenodd" fill-opacity="0.9" stroke="#000000" stroke-opacity="0.9" stroke-width="3.2"/>
<circle clip-path="url(#clip572)" cx="1313.11" cy="1142.85" r="12" fill="#7f66cc" fill-rule="evenodd" fill-opacity="0.9" stroke="#000000" stroke-opacity="0.9" stroke-width="3.2"/>
<circle clip-path="url(#clip572)" cx="1340.31" cy="1122.53" r="12" fill="#7f66cc" fill-rule="evenodd" fill-opacity="0.9" stroke="#000000" stroke-opacity="0.9" stroke-width="3.2"/>
<circle clip-path="url(#clip572)" cx="1367.51" cy="1167.76" r="12" fill="#7f66cc" fill-rule="evenodd" fill-opacity="0.9" stroke="#000000" stroke-opacity="0.9" stroke-width="3.2"/>
<circle clip-path="url(#clip572)" cx="1394.71" cy="1165.84" r="12" fill="#7f66cc" fill-rule="evenodd" fill-opacity="0.9" stroke="#000000" stroke-opacity="0.9" stroke-width="3.2"/>
<circle clip-path="url(#clip572)" cx="1421.91" cy="1162.93" r="12" fill="#7f66cc" fill-rule="evenodd" fill-opacity="0.9" stroke="#000000" stroke-opacity="0.9" stroke-width="3.2"/>
<circle clip-path="url(#clip572)" cx="1449.12" cy="1178.36" r="12" fill="#7f66cc" fill-rule="evenodd" fill-opacity="0.9" stroke="#000000" stroke-opacity="0.9" stroke-width="3.2"/>
<circle clip-path="url(#clip572)" cx="1476.32" cy="1201.36" r="12" fill="#7f66cc" fill-rule="evenodd" fill-opacity="0.9" stroke="#000000" stroke-opacity="0.9" stroke-width="3.2"/>
<circle clip-path="url(#clip572)" cx="1503.52" cy="1219.21" r="12" fill="#7f66cc" fill-rule="evenodd" fill-opacity="0.9" stroke="#000000" stroke-opacity="0.9" stroke-width="3.2"/>
<circle clip-path="url(#clip572)" cx="1530.72" cy="1255.75" r="12" fill="#7f66cc" fill-rule="evenodd" fill-opacity="0.9" stroke="#000000" stroke-opacity="0.9" stroke-width="3.2"/>
<circle clip-path="url(#clip572)" cx="1557.92" cy="1243.93" r="12" fill="#7f66cc" fill-rule="evenodd" fill-opacity="0.9" stroke="#000000" stroke-opacity="0.9" stroke-width="3.2"/>
<circle clip-path="url(#clip572)" cx="1585.12" cy="1247.67" r="12" fill="#7f66cc" fill-rule="evenodd" fill-opacity="0.9" stroke="#000000" stroke-opacity="0.9" stroke-width="3.2"/>
<circle clip-path="url(#clip572)" cx="1612.33" cy="1253.65" r="12" fill="#7f66cc" fill-rule="evenodd" fill-opacity="0.9" stroke="#000000" stroke-opacity="0.9" stroke-width="3.2"/>
<circle clip-path="url(#clip572)" cx="1639.53" cy="1249.39" r="12" fill="#7f66cc" fill-rule="evenodd" fill-opacity="0.9" stroke="#000000" stroke-opacity="0.9" stroke-width="3.2"/>
<circle clip-path="url(#clip572)" cx="1666.73" cy="1252.62" r="12" fill="#7f66cc" fill-rule="evenodd" fill-opacity="0.9" stroke="#000000" stroke-opacity="0.9" stroke-width="3.2"/>
<circle clip-path="url(#clip572)" cx="1693.93" cy="1264.63" r="12" fill="#7f66cc" fill-rule="evenodd" fill-opacity="0.9" stroke="#000000" stroke-opacity="0.9" stroke-width="3.2"/>
<circle clip-path="url(#clip572)" cx="1721.13" cy="1259.88" r="12" fill="#7f66cc" fill-rule="evenodd" fill-opacity="0.9" stroke="#000000" stroke-opacity="0.9" stroke-width="3.2"/>
<circle clip-path="url(#clip572)" cx="1748.33" cy="1283.13" r="12" fill="#7f66cc" fill-rule="evenodd" fill-opacity="0.9" stroke="#000000" stroke-opacity="0.9" stroke-width="3.2"/>
<circle clip-path="url(#clip572)" cx="1775.54" cy="1262.31" r="12" fill="#7f66cc" fill-rule="evenodd" fill-opacity="0.9" stroke="#000000" stroke-opacity="0.9" stroke-width="3.2"/>
<circle clip-path="url(#clip572)" cx="1802.74" cy="1279.75" r="12" fill="#7f66cc" fill-rule="evenodd" fill-opacity="0.9" stroke="#000000" stroke-opacity="0.9" stroke-width="3.2"/>
<circle clip-path="url(#clip572)" cx="1829.94" cy="1286.84" r="12" fill="#7f66cc" fill-rule="evenodd" fill-opacity="0.9" stroke="#000000" stroke-opacity="0.9" stroke-width="3.2"/>
<circle clip-path="url(#clip572)" cx="1857.14" cy="1289.22" r="12" fill="#7f66cc" fill-rule="evenodd" fill-opacity="0.9" stroke="#000000" stroke-opacity="0.9" stroke-width="3.2"/>
<circle clip-path="url(#clip572)" cx="1884.34" cy="1290.71" r="12" fill="#7f66cc" fill-rule="evenodd" fill-opacity="0.9" stroke="#000000" stroke-opacity="0.9" stroke-width="3.2"/>
<circle clip-path="url(#clip572)" cx="1911.54" cy="1294.49" r="12" fill="#7f66cc" fill-rule="evenodd" fill-opacity="0.9" stroke="#000000" stroke-opacity="0.9" stroke-width="3.2"/>
<circle clip-path="url(#clip572)" cx="1938.75" cy="1313.19" r="12" fill="#7f66cc" fill-rule="evenodd" fill-opacity="0.9" stroke="#000000" stroke-opacity="0.9" stroke-width="3.2"/>
<circle clip-path="url(#clip572)" cx="1965.95" cy="1300.13" r="12" fill="#7f66cc" fill-rule="evenodd" fill-opacity="0.9" stroke="#000000" stroke-opacity="0.9" stroke-width="3.2"/>
<circle clip-path="url(#clip572)" cx="1993.15" cy="1301" r="12" fill="#7f66cc" fill-rule="evenodd" fill-opacity="0.9" stroke="#000000" stroke-opacity="0.9" stroke-width="3.2"/>
<circle clip-path="url(#clip572)" cx="2020.35" cy="1313.85" r="12" fill="#7f66cc" fill-rule="evenodd" fill-opacity="0.9" stroke="#000000" stroke-opacity="0.9" stroke-width="3.2"/>
<circle clip-path="url(#clip572)" cx="2047.55" cy="1311.82" r="12" fill="#7f66cc" fill-rule="evenodd" fill-opacity="0.9" stroke="#000000" stroke-opacity="0.9" stroke-width="3.2"/>
<circle clip-path="url(#clip572)" cx="2074.75" cy="1319.61" r="12" fill="#7f66cc" fill-rule="evenodd" fill-opacity="0.9" stroke="#000000" stroke-opacity="0.9" stroke-width="3.2"/>
<circle clip-path="url(#clip572)" cx="2101.96" cy="1316.74" r="12" fill="#7f66cc" fill-rule="evenodd" fill-opacity="0.9" stroke="#000000" stroke-opacity="0.9" stroke-width="3.2"/>
<circle clip-path="url(#clip572)" cx="2129.16" cy="1320.42" r="12" fill="#7f66cc" fill-rule="evenodd" fill-opacity="0.9" stroke="#000000" stroke-opacity="0.9" stroke-width="3.2"/>
<circle clip-path="url(#clip572)" cx="2156.36" cy="1318.46" r="12" fill="#7f66cc" fill-rule="evenodd" fill-opacity="0.9" stroke="#000000" stroke-opacity="0.9" stroke-width="3.2"/>
<circle clip-path="url(#clip572)" cx="2183.56" cy="1324.91" r="12" fill="#7f66cc" fill-rule="evenodd" fill-opacity="0.9" stroke="#000000" stroke-opacity="0.9" stroke-width="3.2"/>
<circle clip-path="url(#clip572)" cx="2210.76" cy="1325.73" r="12" fill="#7f66cc" fill-rule="evenodd" fill-opacity="0.9" stroke="#000000" stroke-opacity="0.9" stroke-width="3.2"/>
<circle clip-path="url(#clip572)" cx="2237.96" cy="1325.9" r="12" fill="#7f66cc" fill-rule="evenodd" fill-opacity="0.9" stroke="#000000" stroke-opacity="0.9" stroke-width="3.2"/>
<circle clip-path="url(#clip572)" cx="2265.17" cy="1330.49" r="12" fill="#7f66cc" fill-rule="evenodd" fill-opacity="0.9" stroke="#000000" stroke-opacity="0.9" stroke-width="3.2"/>
<circle clip-path="url(#clip572)" cx="2292.37" cy="1332.53" r="12" fill="#7f66cc" fill-rule="evenodd" fill-opacity="0.9" stroke="#000000" stroke-opacity="0.9" stroke-width="3.2"/>
<path clip-path="url(#clip570)" d="
M1895.37 278.055 L2281.63 278.055 L2281.63 157.095 L1895.37 157.095  Z
  " fill="#ffffff" fill-rule="evenodd" fill-opacity="1"/>
<polyline clip-path="url(#clip570)" style="stroke:#000000; stroke-width:4; stroke-opacity:1; fill:none" points="
  1895.37,278.055 2281.63,278.055 2281.63,157.095 1895.37,157.095 1895.37,278.055 
  "/>
<circle clip-path="url(#clip570)" cx="1990.2" cy="217.575" r="23" fill="#7f66cc" fill-rule="evenodd" fill-opacity="0.9" stroke="#000000" stroke-opacity="0.9" stroke-width="5.85143"/>
<path clip-path="url(#clip570)" d="M 0 0 M2125.41 201.049 Q2125.41 202.009 2124.59 202.009 Q2121.94 202.103 2120.87 202.993 Q2119.81 203.86 2119.41 205.546 L2112.72 232.271 Q2112.48 233.114 2112.34 233.208 Q2112.2 233.278 2111.94 233.278 Q2111.62 233.278 2111.43 233.114 Q2111.26 232.95 2111.03 232.365 L2099.08 204.117 Q2098.99 203.93 2098.87 203.672 Q2098.76 203.415 2098.66 203.251 L2092.31 228.57 Q2092.13 229.297 2092.13 229.671 Q2092.13 230.585 2092.76 231.17 Q2093.42 231.732 2095.29 231.803 Q2096.25 231.803 2096.25 232.318 Q2096.25 233.278 2095.38 233.278 Q2094.59 233.278 2092.92 233.208 Q2091.26 233.138 2090.44 233.138 Q2089.64 233.138 2088.03 233.208 Q2086.41 233.278 2085.64 233.278 Q2085.03 233.278 2085.03 232.74 Q2085.03 232.318 2085.19 232.107 Q2085.36 231.873 2085.5 231.85 Q2085.64 231.803 2085.85 231.803 Q2087.26 231.756 2088.22 231.475 Q2089.18 231.194 2089.72 230.655 Q2090.28 230.116 2090.53 229.578 Q2090.82 229.015 2091.03 228.196 L2097.44 202.431 Q2097.44 202.009 2094.19 202.009 Q2093.63 202.009 2093.39 201.986 Q2093.18 201.963 2093.02 201.845 Q2092.85 201.728 2092.85 201.471 Q2092.85 200.815 2093.13 200.674 Q2093.42 200.51 2094.24 200.51 L2100.68 200.51 Q2101.5 200.51 2101.71 200.651 Q2101.92 200.768 2102.2 201.424 L2112.81 226.462 L2118.17 205.125 Q2118.31 204.703 2118.31 204.117 Q2118.31 203.181 2117.61 202.618 Q2116.93 202.033 2115.06 202.009 Q2114.19 202.009 2114.19 201.471 Q2114.19 201.026 2114.36 200.815 Q2114.54 200.581 2114.68 200.557 Q2114.85 200.51 2115.06 200.51 Q2115.85 200.51 2117.49 200.581 Q2119.13 200.651 2119.95 200.651 Q2120.75 200.651 2122.37 200.581 Q2124.01 200.51 2124.8 200.51 Q2125.08 200.51 2125.22 200.651 Q2125.39 200.768 2125.41 200.909 L2125.41 201.049 Z" fill="#000000" fill-rule="evenodd" fill-opacity="1" /><path clip-path="url(#clip570)" d="M 0 0 M2136.47 225.994 Q2136.51 225.408 2137.43 225.408 L2166.82 225.408 Q2168.2 225.408 2168.23 225.947 Q2168.23 226.533 2166.91 226.509 L2137.75 226.509 Q2136.47 226.533 2136.47 225.994 M2136.47 216.625 Q2136.47 216.039 2137.47 216.063 L2166.77 216.063 Q2168.2 216.063 2168.23 216.625 Q2168.23 217.164 2167.01 217.164 L2137.43 217.164 Q2136.47 217.164 2136.47 216.625 Z" fill="#000000" fill-rule="evenodd" fill-opacity="1" /><path clip-path="url(#clip570)" d="M 0 0 M2186.72 225.362 L2186.72 223.886 L2201.45 201.377 Q2201.82 200.791 2202.41 200.815 Q2202.95 200.815 2203.07 201.026 Q2203.18 201.236 2203.18 202.056 L2203.18 223.886 L2207.98 223.886 L2207.98 225.362 L2203.18 225.362 L2203.18 229.531 Q2203.18 230.913 2203.75 231.358 Q2204.33 231.803 2206.81 231.803 L2207.82 231.803 L2207.82 233.278 Q2205.85 233.138 2201.31 233.138 Q2196.79 233.138 2194.82 233.278 L2194.82 231.803 L2195.83 231.803 Q2198.31 231.803 2198.9 231.381 Q2199.48 230.936 2199.48 229.531 L2199.48 225.362 L2186.72 225.362 M2188.08 223.886 L2199.76 223.886 L2199.76 205.991 L2188.08 223.886 Z" fill="#000000" fill-rule="evenodd" fill-opacity="1" /><path clip-path="url(#clip570)" d="M 0 0 M2210.47 218.124 Q2210.47 210.582 2214.31 205.968 Q2218.15 201.33 2223.09 201.33 Q2225.97 201.33 2227.57 202.806 Q2229.18 204.258 2229.18 206.507 Q2229.18 207.748 2228.46 208.287 Q2227.73 208.825 2226.98 208.825 Q2226.11 208.825 2225.43 208.24 Q2224.75 207.654 2224.75 206.6 Q2224.75 204.445 2227.4 204.445 Q2226.16 202.525 2223.19 202.525 Q2222.27 202.525 2221.33 202.806 Q2220.4 203.063 2219.18 203.953 Q2217.96 204.844 2217.03 206.249 Q2216.09 207.654 2215.43 210.301 Q2214.78 212.948 2214.78 216.391 L2214.78 217.538 Q2216.74 212.784 2220.77 212.807 Q2224.8 212.807 2227.59 215.875 Q2230.38 218.944 2230.38 223.488 Q2230.38 228.149 2227.47 231.241 Q2224.57 234.332 2220.49 234.332 Q2218.66 234.332 2217 233.559 Q2215.36 232.81 2213.82 231.077 Q2212.29 229.343 2211.38 226.017 Q2210.47 222.691 2210.47 218.124 M2214.87 222.434 Q2214.87 227.142 2215.74 229.39 Q2215.88 229.765 2216.18 230.28 Q2216.51 230.796 2217.05 231.475 Q2217.61 232.131 2218.52 232.576 Q2219.44 232.997 2220.49 232.997 Q2223.7 232.997 2225.25 229.882 Q2226.07 228.149 2226.07 223.441 Q2226.07 218.639 2225.2 216.883 Q2223.72 213.908 2220.73 213.908 Q2218.71 213.908 2217.31 215.29 Q2215.92 216.672 2215.39 218.522 Q2214.87 220.373 2214.87 222.434 Z" fill="#000000" fill-rule="evenodd" fill-opacity="1" /></svg>
